<?xml version="1.0" encoding="UTF-8"?><!DOCTYPE svg PUBLIC "-//W3C//DTD SVG 1.1//EN"
    "http://www.w3.org/Graphics/SVG/1.1/DTD/svg11.dtd"><!-- Creator: CorelDRAW -->
<svg xmlns="http://www.w3.org/2000/svg" xml:space="preserve" width="191.458mm" height="179.815mm"
    version="1.1"
    style="shape-rendering:geometricPrecision; text-rendering:geometricPrecision; image-rendering:optimizeQuality; fill-rule:evenodd; clip-rule:evenodd"
    viewBox="0 0 18504.5 17379.27" xmlns:xlink="http://www.w3.org/1999/xlink"
    xmlns:xodm="http://www.corel.com/coreldraw/odm/2003">
 <defs>
  <style type="text/css">
   <![CDATA[
    .fil5 {fill:white}
    .fil4 {fill:#3C3E40}
    .fil3 {fill:#222224}
    .fil2 {fill:#646869;fill-rule:nonzero}
    .fil1 {fill:#505354;fill-rule:nonzero}
    .fil0 {fill:#222224;fill-rule:nonzero}
   ]]>
  </style>
 </defs>
    <g id="Слой_x0020_1">
  <metadata id="CorelCorpID_0Corel-Layer" />
        <path class="fil0"
            d="M18208.89 8205.86c8.6,-2.95 11.45,-5.8 17.15,-8.7 85.81,-46.22 171.55,-109.8 171.55,-109.8 0,0 -14.25,-23.04 -2.78,-37.51 8.54,-5.74 68.6,-31.75 74.3,-37.56 2.89,-5.75 -28.55,-5.75 -25.7,-11.49 5.74,-5.82 42.84,-14.47 45.74,-23.17 -128.7,-11.56 -594.8,17.35 -958.01,57.83 174.45,-118.46 463.26,-314.88 709.2,-453.52 117.26,-69.32 100.11,-216.63 34.31,-314.81 -11.4,-43.37 -28.55,-75.13 -28.55,-75.13 -160.15,75.13 -1301.22,254.19 -1378.41,283.11 14.25,5.74 20,11.5 25.7,20.21 8.59,8.65 11.44,31.75 11.44,31.75l74.35 14.45 -17.16 25.97 71.5 11.54 20.01 26.02 108.69 28.92 -2.85 14.4c0,0 311.72,-23.05 640.56,-57.72 -217.36,164.6 -471.85,346.57 -652.01,514.08 -211.65,92.44 -80.09,285.96 0,297.51 60,8.7 91.51,-77.99 1060.96,-196.37zm-1264.02 -1559.75c160.16,158.85 243.11,595.01 160.16,678.8 -2.91,2.85 0,-11.56 0,-11.56l-22.86 34.62 -8.6 -14.41c0,0 -31.49,40.4 -45.75,40.4 -14.28,-2.84 -77.19,0 -77.19,0l2.81 -20.19c-28.56,-199.27 -134.36,-389.94 -225.92,-528.53 -74.34,-112.69 85.81,-196.42 217.36,-179.12zm589.11 -210.82c-194.44,60.62 -434.65,277.25 -371.76,519.87 57.21,216.63 326,291.71 600.5,216.63 320.31,-86.62 386.11,-283.04 320.31,-366.84 -14.25,-14.39 -28.59,-17.3 -34.29,-14.39 -2.91,0 -8.61,11.5 -8.61,14.39 -5.69,5.82 -17.15,-11.54 -17.15,-11.54l0 8.65c0,0 -54.35,78.04 -311.71,150.2 -211.65,60.67 -328.83,-51.96 -337.4,-89.53 -2.9,-20.21 25.7,-210.83 571.91,-231.09 40.05,-2.84 88.65,-173.26 31.44,-239.73 -14.28,-20.21 -185.89,-34.66 -443.25,43.37zm77.25 -222.43c154.4,-72.17 223,-95.33 260.2,-138.65 62.89,-77.99 -37.2,-242.64 -114.41,-294.6 -8.55,5.8 -22.84,11.54 -37.2,20.25 -114.34,-5.8 -428.91,-14.45 -734.9,5.76 125.8,-101.09 326,-265.74 534.76,-447.72 71.5,-60.68 40.05,-170.41 -20.06,-257.03 -14.25,-80.89 -71.5,-141.55 -71.5,-141.55 -11.4,8.65 -28.55,20.21 -48.54,31.75l-2.91 -2.89c-2.8,2.89 -2.8,5.8 -5.7,5.8 -248.79,141.55 -975.15,421.71 -1201.11,499.67 5.76,8.66 48.65,2.9 62.95,14.46 14.3,11.56 2.85,52.02 2.85,52.02l34.3 0 34.36 40.42 145.8 14.45 8.59 23.11c0,0 214.5,-54.92 488.99,-144.45 -142.99,153.1 -286,300.41 -363.19,384.14 -151.55,86.69 -17.15,228.24 22.96,222.44 177.24,-8.67 468.94,-31.77 683.44,-57.79 -254.54,158.86 -534.75,363.93 -666.3,537.25 5.7,2.89 19.95,-5.76 25.7,0 8.61,5.8 14.3,26.01 14.3,26.01l40.05 -14.47 14.29 23.12 60.05 -11.56 45.75 -11.56 11.45 17.32 71.5 -11.56c0,0 320.24,-205.07 703.5,-384.14zm-606.31 -1308.41c140.16,-92.45 205.91,-124.2 237.4,-173.31 51.47,-86.64 -74.39,-233.99 -154.45,-274.41 -11.45,5.82 -22.86,14.47 -34.35,23.12 -117.25,11.56 -428.91,49.12 -726.36,112.64 108.65,-118.39 283.1,-311.91 466.16,-519.87 60.05,-69.34 14.29,-176.21 -60.11,-251.29 -25.69,-77.99 -88.65,-130 -88.65,-130 -11.4,11.54 -25.69,23.1 -45.7,37.56 0,0 0,0 -2.91,-2.9 0,2.9 0,5.74 -2.85,8.7 -225.89,176.17 -906.51,557.39 -1118.15,667.2 5.75,8.65 48.65,-2.91 62.96,5.74 17.14,8.71 11.44,49.11 11.44,49.11l34.31 -2.89 39.98 34.66 145.9 -8.65 11.4 23.11c0,0 203.06,-83.74 463.31,-213.73 -120.16,173.32 -240.24,337.92 -306,433.26 -134.4,109.74 14.28,228.19 57.19,216.63 171.6,-34.66 457.55,-101.1 666.25,-156 -231.59,196.42 -477.49,436.16 -583.31,626.82 5.7,2.85 19.97,-5.8 22.86,-2.91 11.45,5.76 20.01,25.97 20.01,25.97l40.05 -20.21 14.3 17.36 57.19 -17.36 45.74 -17.3 14.3 11.54 68.65 -20.25c0,0 285.95,-248.38 643.4,-482.32zm-1386.96 -1631.93c-125.86,109.73 -283.11,433.25 -122.95,629.67 142.99,173.3 417.49,129.94 634.86,-54.87 265.95,-231.08 142.99,-508.39 45.75,-554.61 -17.16,-8.65 -28.62,-2.84 -34.31,0 -2.85,2.91 -2.85,17.36 -2.85,20.21 -2.89,8.71 -20.05,-2.85 -20.05,-2.85l2.85 5.76c0,0 123,127.09 -91.5,311.97 -171.56,144.39 -314.55,129.94 -334.61,98.18 -11.44,-17.31 -31.45,-147.31 134.46,-291.71 102.89,-86.68 194.45,-98.23 248.79,-106.89 14.27,11.55 40.01,-5.75 45.71,-17.31 25.81,-28.9 25.81,-170.4 -54.3,-207.96 -20.05,-11.56 -245.96,-5.8 -451.85,170.41zm-434.71 433.25c217.41,80.89 480.45,453.47 440.4,566.09 -2.78,2.91 -8.54,-8.65 -8.54,-8.65l-5.7 40.47 -14.3 -8.7c0,0 -11.43,52.03 -22.9,57.77 -14.3,5.8 -74.34,34.66 -74.34,34.66l-2.85 -20.21c-111.5,-176.21 -297.4,-309.06 -437.55,-395.74 -122.96,-75.07 -5.76,-225.27 125.79,-265.69zm297.45 -277.3c0,0 20.01,-80.88 -28.59,-31.75 -71.51,69.32 -374.67,115.54 -549.12,-57.79 -148.65,-144.4 -137.19,-372.57 -48.54,-456.35 171.55,-167.52 549,-193.53 660.54,132.84 60.06,26.02 185.91,-37.51 245.97,-98.18 174.45,-173.27 -466.11,-678.74 -995.15,-161.76 -303.15,294.61 -243.12,623.92 -57.26,805.83 240.25,233.99 600.55,176.21 772.15,-132.85zm-1295.46 -1172.66c-88.65,118.44 -426.1,106.89 -640.6,-8.65 94.39,-130 268.84,-378.4 394.69,-569 223.01,202.16 317.36,479.46 245.91,577.65zm-674.91 -31.77c-2.85,0 -8.59,-2.89 -8.59,-2.89l145.9 -199.27c0,0 -71.51,109.74 -131.55,207.92 -2.91,-2.85 -5.76,-2.85 -5.76,-5.76zm188.76 -1028.27c-103,23.12 -157.25,228.19 -120.16,285.96 48.64,14.45 94.41,31.77 140.2,49.07 -88.65,161.8 -225.96,389.94 -340.36,583.51 -94.35,-106.9 -134.4,-222.43 -105.8,-265.74 37.2,-57.78 -25.75,-20.21 -25.75,-20.21 -154.4,242.58 -100.1,421.69 -20,534.33 -31.45,51.97 -54.3,89.54 -57.2,101.08 2.9,2.87 25.75,-8.65 25.75,-8.65l14.25 14.41 45.81 -31.75 28.59 23.1 22.86 -14.45c14.34,11.6 28.59,23.1 42.9,31.81 148.75,98.18 660.6,343.66 932.31,-75.14 500.44,-771.17 -483.37,-1236.19 -583.41,-1207.33zm-454.71 231.09c-60.05,112.63 -383.19,101.09 -594.8,5.75 57.14,-106.89 114.4,-222.38 165.85,-332.17 11.44,-23.06 20.06,-46.16 28.6,-63.52 314.55,129.99 451.86,294.6 400.35,389.94zm114.36 112.63c311.75,-678.78 -763.5,-898.26 -849.3,-869.4 -88.67,28.92 -100.11,205.07 -54.32,251.29 40.01,8.65 77.21,17.36 114.36,26.01 -37.14,98.19 -82.96,216.63 -128.64,335.07 -51.51,-52.02 -77.25,-103.99 -74.41,-132.9 -25.7,34.67 -45.74,104 -40,184.88 -11.44,-23.12 -8.54,-101.09 2.85,-150.21 -14.29,20.2 -22.84,66.43 -22.84,75.14 -14.3,92.38 8.54,170.35 48.54,228.17 -100.04,239.69 -188.7,444.81 -194.45,479.43 5.75,2.89 20.06,-14.41 31.5,-14.41 2.85,0 11.46,14.41 11.46,14.41l34.29 -23.06 14.3 8.65c0,0 22.85,-26.01 31.4,-28.92 17.25,-11.54 42.94,-8.65 42.94,-8.65 0,0 48.6,-43.31 65.75,-54.87 31.51,-20.19 51.45,-34.66 51.45,-34.66 0,0 37.2,-72.22 94.46,-176.21 2.8,0 5.69,2.91 11.4,2.91 37.16,17.36 91.52,40.46 160.16,60.67 31.45,135.76 57.21,294.6 28.6,447.66l8.54 26.01c0,0 40.05,8.65 51.51,11.56 8.55,2.9 45.75,-23.12 45.75,-23.12 0,0 2.89,8.72 5.7,14.46 54.36,-63.57 91.56,-320.62 91.56,-320.62 0,0 19.99,147.31 -65.82,306.16 74.36,-95.27 111.56,-259.94 100.11,-410.15 151.56,0 300.25,-49.11 383.15,-225.28zm-1684.31 -314.8c68.6,-86.68 137.24,-181.96 208.75,-285.95 5.69,121.29 14.25,245.48 31.46,363.93 -77.21,-28.92 -160.16,-57.77 -240.21,-77.98zm500.46 441.91c2.85,-14.45 17.14,31.77 17.14,11.56 -77.19,-563.26 -11.44,-909.83 11.46,-1051.39 11.4,-83.73 -48.66,-127.1 -120.16,-144.4 -37.2,-40.47 -122.95,-69.33 -274.56,-95.34 -148.7,413.06 -426.06,782.73 -537.6,932.93 -128.65,-101.08 -434.65,-196.37 -617.65,-147.3 -85.86,103.99 -100.11,294.65 42.89,288.85 148.7,-5.8 348.85,0 523.3,60.63 5.76,20.25 22.9,28.9 22.9,28.9 0,0 -5.74,54.87 -2.89,60.68 5.7,11.56 22.86,0 25.75,8.65 8.54,11.56 2.85,31.77 14.25,31.77 71.51,-66.43 140.2,-132.85 203.06,-202.18 131.55,17.36 337.45,46.22 417.55,80.84 17.16,0 31.44,-2.85 45.74,-2.85 31.45,181.95 71.5,314.81 108.65,326.36 0,0 14.35,5.8 31.51,2.91 5.69,0 14.25,0 22.84,-5.81 5.75,0 0,-5.75 8.54,-11.49 5.76,-2.91 22.95,-5.82 31.51,-14.47 8.6,-14.45 20,-28.91 28.61,-54.87 2.84,-11.55 -5.76,-89.54 -2.85,-103.99zm-1366.97 -1094.69c-45.75,164.65 2.84,522.78 243.05,595.01 211.62,63.53 417.55,-129.99 494.76,-404.39 97.19,-340.83 -160.16,-499.67 -266.01,-485.23 -17.14,2.85 -25.7,14.41 -28.55,20.21 -2.85,2.85 8.6,14.45 8.6,17.3 2.81,8.71 -17.16,8.71 -17.16,8.71l5.7 2.85c0,0 171.6,37.57 94.35,311.96 -60.04,216.62 -188.7,283.05 -223.05,268.64 -19.99,-5.8 -108.65,-106.88 -48.6,-317.77 37.15,-129.93 105.8,-190.6 145.86,-228.17 22.85,0 31.44,-26.01 31.44,-40.42 2.85,-40.46 -74.39,-155.95 -162.99,-141.54 -22.9,2.89 -205.9,132.89 -277.41,392.83zm-388.96 384.14c-174.39,106.9 -386.04,130 -569.04,109.75 14.28,-72.18 34.29,-179.06 51.45,-335.03 557.7,54.87 517.59,225.28 517.59,225.28zm-483.24 -687.44c128.64,-2.85 257.35,-2.85 280.2,11.55 -60,46.22 -174.41,83.79 -288.8,112.69 2.91,-40.46 2.91,-80.88 8.6,-124.23zm720.6 704.8c2.91,-248.44 -160.14,-378.38 -363.15,-444.81 157.3,-69.32 180.15,-155.96 180.15,-155.96 5.7,-92.49 0,-210.88 -60.05,-262.9 -128.7,-49.06 -348.91,-54.86 -526.15,-46.16 -80.1,-63.57 -223.11,-14.45 -223.11,-14.45 2.91,5.75 5.76,14.45 5.76,23.1 -34.36,5.76 -57.21,5.76 -57.21,5.76 -28.6,46.22 -8.61,150.2 20,176.21 5.7,2.89 22.9,8.65 45.75,11.55 -2.85,54.86 -2.85,118.4 -2.85,187.71 -51.51,8.7 -85.8,14.46 -85.8,14.46l2.84 20.21c-31.45,5.8 -45.74,8.65 -48.6,11.54 -74.36,144.46 22.9,213.74 22.9,213.74 34.29,0 65.75,0 97.2,2.89 -5.7,103.99 -11.4,210.87 -14.3,309.06 -77.19,-26.02 -140.1,-54.88 -183,-86.63 8.54,170.41 77.2,268.59 168.7,329.27 -2.85,80.88 -5.69,135.75 -2.85,153.05 8.55,-2.84 22.9,-28.86 31.45,-34.66 14.3,-5.76 11.45,-20.21 22.9,-57.78 2.85,17.36 14.3,37.57 25.7,23.12 8.61,-11.56 14.35,-23.12 25.75,-37.51 114.42,40.4 240.21,40.4 308.85,46.16 326.01,23.16 603.42,-80.82 609.11,-386.99zm-1987.46 34.67c5.69,-49.12 17.15,-130 22.85,-231.09 94.39,-26.01 200.2,-60.67 211.66,-60.67 25.69,-11.56 94.35,-46.22 94.35,-46.22l11.43 -23.11 68.6 -20.21 0 -17.3 60.11 -43.37 -22.9 0 57.2 -34.66 5.7 -46.22c0,0 14.3,-31.76 14.3,-43.32 -102.95,2.91 -311.72,20.26 -480.47,46.23 2.91,-46.23 5.76,-95.3 5.76,-144.41 0,-14.45 2.85,-31.77 2.85,-46.22 165.9,-31.76 360.35,-69.33 371.75,-69.33 11.46,-5.75 85.81,-40.42 85.81,-40.42l2.89 -23.1 60.01 -34.72 -37.15 0c0,0 37.15,-28.86 42.89,-34.66 25.75,-28.86 60.06,-46.16 60.06,-46.16 0,0 -2.85,-34.67 0,-49.12 -125.81,2.89 -563.36,2.89 -766.41,37.56 -77.19,-5.81 -151.55,26.01 -151.55,26.01 37.15,124.19 42.89,707.6 51.45,1036.87 -17.15,5.8 -28.6,11.56 -37.14,20.25 -94.41,51.98 20,303.27 80.05,271.5 380.36,-199.26 783.56,-303.25 803.6,-303.25 22.86,-8.71 31.46,-37.57 62.91,-63.58 31.44,-26.02 82.95,-49.12 82.95,-49.12l-51.51 -2.85 71.51 -37.57 8.55 -23.1c0,0 34.35,-37.57 34.35,-49.12 -220.2,-37.57 -569.12,51.97 -826.46,144.45zm-503.36 -759.67c8.59,-121.3 -263.05,-228.19 -303.11,-118.45 -20.01,288.86 -154.45,505.48 -248.8,621.02 -11.45,-92.43 -25.7,-181.95 -40,-274.39 -48.64,-337.92 -263.1,-271.49 -340.36,-233.93 -19.99,5.75 -22.84,25.96 -22.84,31.76 85.8,207.97 274.5,1244.9 303.15,1317.07 8.54,0 11.4,-23.06 19.99,-28.86 2.85,-2.91 20,5.8 20,5.8l14.3 -40.46 17.15 -2.91c0,0 5.76,-34.66 8.6,-40.4 11.46,-20.27 34.3,-31.77 34.3,-31.77 0,0 14.3,-66.48 25.76,-83.78 14.28,-37.57 22.9,-60.67 22.9,-60.67 0,0 -11.45,-115.5 -28.6,-274.41 37.14,-25.95 77.19,-63.53 120.1,-103.99 117.25,98.25 328.85,349.54 403.2,514.13l20.06 14.47c0,0 40,-14.47 51.46,-17.37 14.29,-5.75 28.6,-46.22 28.6,-46.22 0,0 5.69,2.96 8.54,8.71 14.3,-89.53 -102.95,-320.61 -102.95,-320.61 0,0 94.41,112.63 120.16,294.6 17.16,-202.18 -180.16,-522.79 -354.65,-644.08 120.14,-156 217.36,-337.98 223.05,-485.27zm-749.21 1178.47l14.3 -8.65 -34.35 -23.17c0,0 14.28,0 8.59,-2.85 -82.96,-83.77 -680.61,31.77 -843.61,199.27 -20.05,138.65 65.75,306.21 183,225.33 140.15,-92.43 489,-236.89 692.07,-265.75l20.05 5.76c0,0 0,-69.28 0,-83.73 0,-14.45 -40.05,-46.22 -40.05,-46.22zm-657.76 -335.07c17.16,-86.64 31.44,-179.06 42.9,-274.4 57.19,80.89 120.09,164.65 185.89,248.39 -71.49,0 -151.6,8.71 -228.79,26.01zm-251.66 254.18c22.91,80.89 74.36,138.66 157.31,98.19 148.7,-75.07 357.45,-158.86 563.35,-158.86l20.01 5.8c0,0 8.6,-63.57 8.6,-80.88 14.29,14.46 25.75,28.86 25.75,28.86l17.16 -23.11 19.99 5.81 22.92 5.75 8.59 -23.12c0,0 34.3,20.27 37.15,20.27 -254.51,-349.53 -403.22,-670.15 -454.7,-782.78 -34.31,-83.73 -111.51,-89.53 -183,-66.43 -48.66,-17.3 -137.31,0 -280.26,66.43 51.45,349.48 37.14,644.13 8.54,883.82 11.45,-2.85 20.05,8.71 28.6,20.25zm-300.25 -857.84c-8.61,-2.91 -60.06,2.89 -77.19,-2.91 -11.45,-2.85 -34.35,-25.95 -34.35,-25.95l-17.16 23.1c0,0 -11.46,-17.36 -17.16,-11.55 -22.86,257.04 -22.86,563.19 14.3,880.91 -134.4,-184.83 -245.95,-363.93 -323.16,-453.46 -51.49,-60.63 -131.55,-25.97 -208.75,49.11 -11.45,20.21 0,34.66 17.15,31.77 2.85,5.74 11.45,14.45 17.16,23.1 -17.16,135.76 -14.3,329.27 0,519.89 -54.36,-101.1 -117.25,-210.83 -188.76,-323.47 -263.04,-421.71 -511.9,-66.43 -511.9,-66.43 -17.16,28.86 22.9,46.22 62.95,40.42 225.9,181.95 663.46,875.15 729.21,967.59 8.6,11.56 17.16,11.56 25.75,8.71 2.84,-2.91 -25.75,-63.58 -25.75,-63.58 0,0 42.89,43.37 48.6,34.66l0 -11.54c77.25,26 160.16,-54.87 160.16,-54.87 -85.8,-233.99 -128.65,-609.48 -148.66,-834.75 128.66,193.51 294.5,441.91 489.01,641.22 60.04,37.57 111.49,28.86 151.54,0 71.51,-23.1 125.86,-77.97 125.86,-77.97 -160.21,-378.39 -214.51,-678.79 -205.96,-956.1 5.76,-283 -60.04,-326.37 -82.89,-337.91zm-1793.07 1117.78c-5.69,-2.84 -11.45,-8.65 -17.16,-11.55 -74.34,-60.62 -168.69,-106.84 -168.69,-106.84 0,0 -17.19,17.3 -31.44,14.41 -11.51,-2.85 -60.12,-49.07 -65.81,-51.98 -5.7,0 5.69,28.86 0,28.86 -8.55,-2.89 -31.45,-31.75 -40.05,-34.66 42.89,124.24 265.94,540.14 451.85,854.95 -177.3,-106.83 -474.69,-291.7 -703.5,-459.2 -111.51,-78.04 -237.35,0 -297.41,101.03 -34.29,28.9 -54.34,60.67 -54.34,60.67 134.4,112.69 775,1083.18 832.2,1143.8 0,-17.3 2.85,-25.95 5.7,-34.66 5.7,-11.56 25.75,-23.12 25.75,-23.12l-17.2 -75.06 28.66 5.74 -17.16 -69.27 14.3 -28.92 -20.05 -112.63 14.29 -2.91c0,0 -151.54,-277.29 -320.25,-563.24 237.35,129.99 509,285.95 734.9,381.29 171.6,155.95 288.87,-46.23 268.86,-124.2 -17.2,-57.78 -111.54,-52.02 -623.46,-892.53zm-288.8 1455.73l11.4 -14.41 -42.89 -5.8c0,0 14.3,-5.81 8.6,-5.81 -114.4,-34.61 -591.96,346.62 -660.61,571.96 45.75,129.94 200.2,236.82 268.8,112.64 80.1,-147.3 323.2,-439.06 491.91,-560.35l19.99 -2.9c0,0 -34.3,-60.67 -40.05,-72.18 -5.7,-14.46 -57.15,-23.15 -57.15,-23.15zm-734.95 8.69c-25.76,-86.68 -54.36,-173.3 -88.65,-262.83 88.65,46.22 183,89.53 280.24,132.84 -62.89,34.67 -131.55,77.98 -191.59,130zm-105.8 340.83c54.3,63.52 128.64,89.53 183,17.3 97.2,-138.6 245.95,-311.91 426.11,-407.24l19.99 -2.91c0,0 -19.99,-60.62 -28.55,-75.07 20.01,5.8 37.16,11.55 37.16,11.55l2.85 -26.02 20 -5.74 25.75 -2.91 -5.7 -26.01 42.85 2.91c-386.04,-193.51 -663.39,-407.26 -760.65,-485.27 -68.65,-57.72 -137.31,-25.96 -191.61,26.02 -54.34,8.65 -120.09,66.47 -220.2,190.66 208.77,285.89 326.01,554.54 411.81,779.82 8.54,-8.65 22.9,-2.89 37.2,2.91zm-897.96 -343.72c-82.95,20.19 -128.7,98.18 -151.6,141.55 -2.85,11.54 -2.85,20.19 -2.85,25.95 -85.8,101.09 -160.16,190.62 -214.46,274.39 -54.34,86.63 183,294.67 285.96,170.41 20,-25.97 80.06,-103.99 188.76,-242.64 311.7,257.09 772.1,667.24 823.6,699.01 2.84,-5.75 -37.21,-63.52 -37.21,-63.52l48.61 20.19 -11.4 -46.2 8.54 -11.56c0,0 -17.14,-31.77 -17.14,-40.42 -5.7,-23.16 14.28,-20.21 14.28,-20.21l-34.29 -69.37 14.3 -8.65 -42.9 -95.35c0,0 -297.4,-335.01 -580.51,-600.75 51.47,-63.53 105.8,-135.76 168.71,-213.73 68.64,-161.75 14.3,-294.6 -34.3,-346.58 -148.71,144.41 -294.56,288.8 -426.11,427.47zm-497.61 571.89c-37.2,51.98 -371.74,603.66 -208.75,736.53 0,0 -20,11.54 111.51,118.44 257.4,213.72 786.46,-439.06 917.95,-332.17 71.51,60.68 -168.69,782.73 -629.1,404.34l-25.75 -5.74 11.44 46.2c0,0 80.06,83.8 154.4,141.55 -91.5,-63.57 -148.71,-115.55 -148.71,-115.55 0,0 60.12,83.74 177.31,179.06 114.41,95.29 437.57,115.55 592.01,-101.08 154.4,-216.62 231.59,-456.37 -42.96,-684.54 -337.4,-277.3 -846.45,242.63 -872.2,219.52 -11.4,-8.71 88.65,-314.86 220.2,-499.72 -82.91,-190.62 -257.36,-106.85 -257.36,-106.85zm177.31 1135.11c-31.45,-8.65 -77.19,-8.65 -137.25,2.89 -314.59,60.67 -394.65,346.63 -408.94,404.35 28.59,-20.21 65.73,-60.61 65.73,-60.61l-19.99 75.06 37.2 -43.31 54.3 -69.33 -48.6 118.44 34.29 -43.31c0,0 20.05,-52.02 45.75,-78.03 -22.86,60.67 -37.14,101.09 -37.14,101.09l31.44 -23.06 22.86 8.65c37.2,-66.41 171.59,-291.75 311.74,-265.74 240.21,127.1 -134.39,1002.27 -411.79,857.86 -145.86,-77.98 -271.7,-600.77 -40.05,-1045.58 19.99,-37.56 -17.16,-66.48 -62.9,-80.89 0,-8.65 -2.85,-17.34 -5.76,-23.1 -45.74,-60.67 -231.64,-34.66 -231.64,-34.66 -145.81,441.9 -437.51,872.25 -437.51,872.25 51.45,52.03 151.56,135.76 260.25,89.54 37.14,-17.3 65.75,-147.3 142.95,-280.15 -2.84,245.49 37.21,476.57 311.71,629.67 594.87,329.28 1158.21,-797.17 586.25,-1094.68 -20.01,-8.71 -40.05,-17.36 -62.9,-17.36zm-1369.81 982.04c-20.01,40.42 -62.9,153.11 14.3,193.53 11.44,5.8 20.05,8.65 31.45,14.45 131.55,176.21 531.9,560.35 520.45,589.21 -503.3,-141.55 -700.61,-291.71 -809.27,-69.33 -42.89,86.67 -37.2,147.3 31.4,170.46 0,0 17.2,-14.46 42.96,-17.36 257.34,-37.58 1018.06,439.01 1183.9,95.29 22.91,-46.18 37.2,-89.54 25.76,-121.31 -14.36,-51.96 -177.35,-170.4 -368.91,-329.26 300.25,129.95 649.14,228.17 992.31,179.06 25.74,-5.75 25.74,-43.32 20,-75.09 -2.86,-5.8 -20,-23.1 -25.7,-26.01 2.85,-2.89 11.4,-5.74 5.7,-5.74 -8.61,-2.91 -28.62,-5.8 -100.11,-34.66 -5.7,0 -48.6,-11.56 -54.3,-11.56 0,-2.89 31.45,2.91 31.45,2.91 -20.06,-8.71 -42.9,-17.36 -65.8,-28.92 -2.85,-2.9 -237.35,-54.87 -237.35,-54.87 0,0 205.9,37.57 200.21,34.66 -20.01,-8.65 -42.9,-20.21 -68.66,-34.66 -566.2,-130 -1138.15,-548.79 -1158.16,-557.44 -20.05,-8.66 -148.75,-46.23 -211.66,86.62zm440.41 1065.83c-71.5,-28.91 -243.06,-34.67 -268.8,40.42 -60.06,158.85 -80.1,528.58 -94.41,658.53 8.61,0 14.3,-5.76 20.06,-17.3 0,-5.8 14.28,-173.32 42.9,-283.06 -14.3,176.17 -17.21,265.7 -8.61,262.85 68.65,-34.66 160.15,-83.79 200.15,-156 2.89,-14.41 80.1,-239.73 120.16,-375.49 80.05,95.34 154.4,254.19 117.2,410.15 -45.71,205.07 -245.9,311.97 -363.17,280.14 -228.74,-63.53 -446.1,-375.43 -228.74,-641.18 -8.59,-63.56 -128.7,-138.64 -211.66,-158.85 -237.35,-60.68 -331.71,753.87 380.36,944.48 406.05,106.9 652,-115.54 709.2,-369.73 68.65,-300.36 -117.25,-557.39 -414.65,-594.96zm-563.35 1048.47c122.94,25.97 205.89,337.92 180.15,571.85 -117.26,-23.04 -243.06,-46.16 -363.2,-60.61 -25.71,-2.91 -48.61,-5.81 -65.76,-8.66 28.61,-343.73 143.01,-522.79 248.82,-502.58zm71.43 -144.4c-734.9,-95.34 -623.41,1005.11 -569.05,1080.24 54.35,75.08 223.05,34.66 251.65,-23.1 -2.85,-43.33 -5.69,-80.89 -5.69,-121.34 102.95,8.69 225.89,17.34 351.75,28.9 -34.36,63.52 -74.34,103.99 -103,109.75 40.05,14.45 111.54,11.56 188.76,-17.3 -20.01,17.3 -94.35,37.55 -145.86,40.4 22.9,8.65 71.49,2.91 80.09,2.91 91.5,-14.45 157.3,-60.68 200.2,-115.55 257.36,26.01 477.56,46.22 511.85,46.22 0,-8.65 -20.01,-17.31 -22.85,-26.01 0,-5.76 8.56,-17.31 8.56,-17.31l-31.46 -28.91 2.84 -14.41c0,0 -31.44,-14.45 -37.14,-20.21 -14.3,-14.45 -20.05,-40.46 -20.05,-40.46 0,0 -54.31,-31.76 -71.45,-46.22 -25.76,-23.11 -48.65,-40.47 -48.65,-40.47 0,0 -77.19,-14.39 -194.45,-37.51 0,-2.89 2.84,-8.71 2.84,-11.56 2.85,-40.46 8.61,-101.08 8.61,-173.3 117.25,-69.32 260.2,-141.55 414.65,-161.76l20.01 -14.39c0,0 -2.85,-40.48 -2.85,-52.02 -2.85,-11.56 -37.15,-40.47 -37.15,-40.47 0,0 8.54,-2.86 11.4,-8.66 -74.34,-34.66 -328.85,8.66 -328.85,8.66 0,0 134.4,-63.53 308.87,-28.86 -111.51,-43.32 -277.41,-28.86 -417.51,26 -42.89,-147.3 -137.3,-277.29 -326.06,-303.25zm-643.4 1340.18c-2.85,43.31 -5.7,164.65 82.91,173.3 11.45,0 20.05,0 31.5,2.85 183,118.45 692.05,337.98 689.21,369.75 -520.51,43.31 -755.02,-25.97 -780.76,219.52 -11.4,95.28 14.35,150.2 88.66,150.2 0,0 11.45,-20.27 34.35,-34.66 228.74,-124.25 1103.86,57.76 1143.91,-323.53 5.69,-49.11 2.84,-95.34 -17.2,-121.29 -34.29,-43.37 -223.05,-98.24 -460.41,-179.12 326,14.46 689.22,-14.4 992.31,-181.95 22.91,-11.56 11.45,-49.13 -8.59,-75.08 -2.85,-5.76 -25.71,-14.45 -31.4,-14.45 2.85,-5.76 8.54,-8.65 5.69,-8.65 -11.45,0 -31.44,5.74 -108.65,2.89 -2.84,0 -48.63,5.76 -54.34,5.76 0,0 31.44,-5.76 28.6,-5.76 -20.01,-2.89 -42.9,-2.89 -68.65,-2.89 -5.7,-2.91 -243.06,28.84 -243.06,28.84 0,0 205.89,-37.51 200.15,-37.51 -22.85,0 -45.74,-2.89 -74.35,-5.8 -577.65,75.14 -1258.27,-118.39 -1281.16,-121.29 -20,0 -151.55,8.65 -168.7,158.86zm208.76 956.03c-120.11,-14.45 -240.21,257.05 -131.55,300.42 283.15,34.67 489,181.96 597.7,283.05 -88.65,5.8 -180.19,14.45 -271.69,23.1 -337.47,34.66 -280.26,257.04 -248.82,335.03 5.76,20.25 25.77,26.01 31.46,23.1 208.8,-75.08 1246.86,-216.57 1318.36,-239.67 0,-8.71 -20.06,-11.56 -28.6,-20.27 -2.85,-2.9 8.54,-20.21 8.54,-20.21l-42.85 -17.35 0 -17.31c0,0 -34.35,-8.66 -40.05,-11.55 -17.16,-11.56 -28.59,-34.66 -28.59,-34.66 0,0 -65.8,-20.21 -82.91,-31.77 -37.21,-14.45 -60.11,-26.01 -60.11,-26.01 0,0 -114.35,5.8 -271.65,17.36 -25.75,-40.46 -60.06,-83.78 -94.41,-127.11 103.02,-115.54 360.36,-317.7 526.22,-381.29l17.14 -20.19c0,0 -14.29,-40.42 -17.14,-51.98 -2.85,-14.45 -45.75,-31.81 -45.75,-31.81 0,0 5.74,-5.74 11.44,-8.65 -88.65,-17.3 -323.16,89.53 -323.16,89.53 0,0 117.27,-92.44 297.41,-109.74 -197.3,-26.01 -526.16,158.86 -654.87,326.37 -148.69,-127.1 -323.14,-233.93 -466.15,-248.4z" />
        <path class="fil0"
            d="M18337.54 10871.81c11.44,-43.37 31.49,-161.75 -54.36,-184.86 -11.4,-2.91 -19.94,-5.8 -31.4,-8.71 -163.05,-144.4 -632.01,-439.01 -626.31,-470.76 523.35,37.55 743.55,141.5 806.41,-98.25 22.94,-92.38 8.65,-150.2 -65.71,-158.86 0,0 -14.28,17.37 -40.09,26.02 -243.06,89.53 -1080.96,-225.28 -1178.16,144.44 -11.4,49.07 -17.19,95.29 0,127.04 25.71,46.22 205.9,127.11 428.96,245.54 -323.14,-66.42 -683.5,-92.43 -1009.51,28.86 -25.71,8.71 -17.16,46.22 -2.85,75.14 2.85,5.74 22.9,17.3 28.59,20.19 -2.84,2.91 -8.59,5.76 -5.69,8.67 8.54,0 31.46,-2.91 105.8,11.54 5.7,0 51.45,0 54.36,2.91 2.85,0 -31.51,0 -28.61,0 20,5.8 42.9,11.56 68.6,14.45 5.75,2.85 245.95,8.65 245.95,8.65 0,0 -208.75,5.76 -205.84,5.76 22.84,2.9 45.69,11.56 74.29,17.36 580.51,14.46 1223.97,309.06 1246.86,314.8 20.01,2.91 151.56,11.56 188.71,-129.94zm137.29 -1571.26c45.75,-69.33 28.55,-158.9 14.3,-208.03 -2.91,-8.65 -8.6,-14.39 -14.3,-20.21 -5.74,-129.94 -11.43,-248.38 -28.59,-346.57 -17.16,-103.98 -331.71,-89.53 -323.16,72.18 2.85,31.81 11.45,130 25.75,306.22 -403.25,25.95 -1015.21,43.31 -1075.26,51.96 2.85,8.66 68.66,26.02 68.66,26.02l-48.66 17.3 40.05 23.12 2.91 17.34c0,0 34.3,8.65 39.99,14.41 17.16,14.45 2.85,23.1 2.85,23.1l68.64 28.92 0 17.3 94.37 40.47c0,0 440.4,40.42 829.29,43.33 5.7,80.87 14.31,170.4 20.06,268.63 60.05,167.51 188.71,225.28 260.2,231.04 8.61,-205.07 20.05,-413.06 22.9,-606.52zm-45.74 -927.18c-5.74,-20.27 -25.75,-28.92 -31.51,-26.01 -225.9,60.62 -1301.16,138.65 -1381.21,158.86 0,8.65 22.91,23.1 22.91,23.1l54.29 11.56 -14.28 17.3 48.64 28.93 37.15 54.87 71.5 20.21 8.54 20.25 48.66 5.76 -17.16 17.35c0,0 466.1,2.84 863.65,-11.61 354.55,-17.3 314.55,-239.67 288.8,-320.56z" />
        <path class="fil0"
            d="M11997.58 16547.44c-42.89,5.74 -111.55,28.86 -183.06,54.87 82.9,-231.08 140.16,-540.16 105.85,-635.43 -62.95,-164.65 -225.94,-219.53 -331.81,-205.07 -105.78,17.36 -308.85,381.23 -274.44,473.67 17.15,49.07 117.21,89.58 151.5,83.73 40.05,-5.76 154.45,-349.47 240.24,-363.88 28.61,77.97 -97.24,620.98 -160.14,811.64 -17.16,23.06 -28.6,46.22 -25.75,66.41 0,5.82 0,8.67 2.85,14.47 34.33,86.63 191.59,153.06 257.4,138.59 323.14,-369.67 520.5,-280.14 563.35,-271.49 42.9,11.56 -88.65,-207.97 -346,-167.5zm-835.06 -678.81c-31.49,2.91 -60.05,17.36 -60.05,17.36 0,0 -62.9,439.06 -131.54,571.91 -22.92,46.21 94.39,144.41 180.15,89.54 37.2,181.91 100.09,358.17 208.75,470.81 57.21,60.61 143,-20.27 143,-34.68 2.85,-11.54 -194.45,-254.23 -151.6,-976.28 8.59,-144.41 -114.36,-150.22 -188.71,-138.66zm-531.91 1172.72c-17.14,2.9 -120.1,-46.26 -171.55,-346.62 -5.75,-28.86 -11.5,-54.88 -14.34,-80.89 68.58,103.99 174.44,196.42 277.39,233.99 -28.59,103.93 -74.34,190.6 -91.5,193.51zm-100.09 -788.52l0 0c0,0 151.54,-109.8 225.9,306.15 11.5,60.63 5.74,129.95 -11.45,199.27 -225.9,-144.41 -360.3,-378.38 -214.45,-505.43zm17.2 -69.38c-57.26,11.6 -82.96,20.25 -91.57,26.01 -14.28,5.8 -25.74,14.51 -37.2,23.16 -28.59,-66.47 -122.94,-109.8 -211.59,-43.31 -114.42,179.06 -65.76,1140.86 537.6,984.85 160.14,-40.42 297.39,-262.8 228.8,-652.74 -60.05,-337.97 -311.7,-358.12 -426.05,-337.97zm-454.77 840.54c-42.9,-5.74 -114.4,-5.74 -191.59,0 142.99,-196.42 285.95,-476.56 280.26,-577.65 -11.46,-176.21 -151.56,-277.3 -257.36,-291.69 -105.85,-17.36 -406.11,271.48 -397.51,372.58 2.85,49.07 85.81,118.39 120.1,124.19 40.05,5.74 248.81,-288.86 334.61,-277.3 5.69,80.88 -271.71,563.26 -386.06,727.86 -22.9,17.36 -40.05,34.66 -42.9,57.78 -2.89,2.89 -2.89,8.65 -2.89,14.41 8.59,92.48 140.14,202.22 208.8,205.11 414.64,-257.09 577.65,-115.55 614.8,-92.43 37.2,23.05 -25.75,-225.28 -280.26,-262.85zm-1447.01 -2.89c8.59,-37.53 22.91,-98.2 34.36,-176.17 77.19,-11.56 160.08,-31.75 168.69,-28.9 22.85,-5.76 77.19,-28.86 77.19,-28.86l11.45 -17.32 54.36 -8.69 0 -14.47 51.45 -28.86 -20.01 -2.9 48.61 -23.1 8.6 -34.68c0,0 14.25,-23.04 14.25,-31.7 -80.06,-5.85 -243.05,-8.7 -374.6,-2.96 5.75,-34.66 11.45,-72.22 14.3,-109.73 2.89,-11.56 5.74,-26.01 5.74,-37.57 131.5,-11.56 285.95,-26.01 291.71,-23.12 11.4,-2.89 71.45,-25.95 71.45,-25.95l2.89 -17.36 51.45 -20.21 -28.59 -5.8c0,0 28.59,-17.3 34.29,-23.06 20.05,-17.34 48.65,-28.9 48.65,-28.9 0,0 0,-28.92 5.7,-37.57 -97.2,-8.7 -437.56,-43.36 -597.72,-31.76 -57.19,-11.6 -117.19,8.65 -117.19,8.65 19.99,98.25 -22.91,548.79 -40.05,805.89 -14.3,2.84 -25.76,8.65 -31.46,11.49 -77.19,34.67 -8.59,236.89 40.01,216.63 308.85,-124.15 629.14,-170.4 646.29,-170.4 20.06,-5.76 28.61,-25.96 54.36,-43.32 25.75,-17.31 68.6,-31.77 68.6,-31.77l-42.85 -8.65 60 -23.1 8.6 -17.31c0,0 28.6,-23.17 31.45,-34.67 -168.69,-46.26 -446.1,-2.89 -652.01,46.18zm-205.9 -233.93c0,0 -19.99,-60.68 -31.45,-5.8 -14.3,75.12 -191.6,239.73 -380.34,205.05 -157.32,-28.86 -245.97,-181.92 -225.92,-274.39 37.16,-181.92 268.81,-363.93 480.46,-202.17 51.46,-11.55 102.9,-109.74 117.2,-173.3 37.2,-190.61 -594.81,-231.08 -712.05,332.16 -65.75,323.53 114.4,508.39 311.7,545.95 257.41,46.17 466.17,-150.25 440.41,-427.5zm-652 -491.03c0,-5.75 0,-11.6 0,-14.45 -2.85,-77.99 -20.01,-158.86 -20.01,-158.86 0,0 -20.05,0 -25.75,-11.55 -2.85,-5.8 2.85,-60.63 -2.85,-63.52 0,-5.8 -14.3,17.3 -14.3,11.55 -2.85,-5.81 2.85,-34.67 0,-40.41 -51.51,89.47 -191.6,427.45 -286,696.04 -22.85,-161.75 -60.05,-430.4 -74.35,-652.79 -8.55,-106.83 -117.25,-144.39 -205.89,-132.84 -34.3,-5.75 -62.91,-2.9 -62.91,-2.9 0,138.65 -263.1,1005.16 -271.65,1068.69 11.4,-5.76 17.16,-8.67 22.85,-11.52 8.59,0 28.6,2.85 28.6,2.85l34.35 -46.16 11.4 20.16 31.51 -46.17 25.7 -5.8 57.21 -66.42 8.59 5.8c0,0 91.5,-225.34 177.3,-470.81 40.05,207.92 80.07,450.55 134.4,635.41 -5.69,181.97 171.56,153.06 205.86,101.1 28.66,-40.42 -20.01,-92.43 225.96,-817.39zm-877.92 -436.16c-17.19,-2.91 -28.59,5.76 -28.59,14.41 -22.92,179.1 -297.41,982.1 -308.86,1045.63 5.7,2.89 25.69,-8.66 25.69,-8.66l22.91 -34.66 8.55 11.55 34.35 -23.11 48.6 -11.56 37.21 -46.22 17.14 2.91 20.01 -34.66 5.69 17.3c0,0 145.86,-337.92 257.41,-629.61 94.34,-260.01 -74.35,-300.41 -140.1,-303.32zm-128.7 -63.52c-45.74,-17.3 -520.44,-167.56 -589.11,-17.3 0,0 -14.29,-11.62 -68.65,106.83 -108.65,236.83 477.61,517.04 423.25,635.43 -28.6,66.42 -614.85,23.11 -420.4,-401.45l0 -17.35 -34.29 14.46c0,0 -45.75,77.97 -74.36,147.3 28.61,-83.78 57.21,-135.75 57.21,-135.75 0,0 -51.51,60.68 -100.11,167.51 -48.6,106.9 -2.84,355.28 188.76,433.21 191.61,75.17 386.05,89.58 503.31,-164.57 142.99,-309.06 -343.16,-597.9 -328.91,-621.02 2.91,-11.55 248.86,5.82 411.87,72.23 125.79,-101.09 31.44,-219.52 31.44,-219.52z" />
        <path class="fil1"
            d="M11285.48 13685.07c-1584.27,1161.1 -3380.18,1348.88 -4975.9,791.38 -732.11,-430.36 -1384.11,-1028.22 -1896.03,-1779.19 -294.54,-433.29 -526.14,-892.51 -692.05,-1366.23 1850.26,2723.72 5296.19,3694.28 8078.71,1652.15 2.85,-2.85 5.76,-2.85 8.55,-5.76 194.51,-135.75 374.66,-288.84 537.66,-462.16 -260.19,462.16 -617.7,860.75 -1052.36,1164.01 -2.9,2.91 -5.75,5.82 -8.59,5.82z" />
        <path class="fil0"
            d="M11285.48 13685.07c2.84,0 5.69,-2.91 8.59,-5.82 434.66,-303.26 792.17,-701.85 1052.36,-1164.01 357.51,-378.34 632.01,-834.69 797.91,-1337.28 28.6,-83.77 54.3,-164.65 77.19,-239.73 85.76,-268.64 151.56,-482.36 243.06,-597.91 125.8,-158.85 268.8,-190.61 337.45,-5.75 31.5,80.88 -68.65,343.67 8.56,444.81 22.94,8.65 48.63,20.21 80.09,40.42 185.9,-31.77 105.79,-979.15 526.15,-696.1 137.31,92.44 -39.99,355.27 -142.95,580.55 -82.96,179.11 -120.1,335.07 91.5,352.43 154.45,14.41 217.31,-144.45 257.4,-349.53 71.5,-355.28 71.5,-846.29 363.21,-782.73 94.35,23.12 154.4,66.43 188.7,124.19 125.85,222.39 -57.21,620.98 -88.66,742.33 -217.35,852.04 -646.31,1666.59 -1241.1,2365.54 -346.01,407.24 -746.42,774.08 -1195.37,1086.04 -1953.17,1351.73 -4421.14,1363.33 -6340.01,233.93 1595.71,557.5 3391.63,369.73 4975.9,-791.38z" />
        <path class="fil0"
            d="M7258.99 3879.07c-2.85,2.91 -5.7,5.76 -8.6,5.76 -434.67,303.3 -792.11,704.8 -1052.37,1164.01 -357.44,381.29 -632.01,837.64 -797.85,1340.23 -28.59,83.73 -54.3,161.76 -77.19,239.74 -85.8,265.74 -151.61,482.37 -243.12,594.95 -125.79,158.86 -268.8,193.52 -337.4,5.81 -31.49,-80.88 68.6,-340.82 -5.74,-444.81 -25.75,-5.76 -51.45,-20.21 -82.91,-37.57 -185.9,28.91 -105.85,979.2 -526.21,696.1 -137.25,-92.44 40,-358.12 143,-580.55 82.9,-181.97 120.1,-335.07 -91.56,-355.28 -154.39,-14.46 -217.29,147.35 -257.34,352.43 -71.5,355.22 -71.5,843.34 -363.21,779.82 -94.35,-20.2 -154.4,-66.42 -188.75,-124.2 -125.8,-222.41 57.2,-618.11 88.66,-742.31 220.2,-849.15 646.3,-1666.6 1241.15,-2365.59 346.01,-404.35 746.37,-771.17 1195.38,-1083.14 1953.16,-1354.64 4421.13,-1366.2 6340,-236.84 -1595.76,-554.53 -3391.63,-366.82 -4975.94,791.43z" />
        <path class="fil0"
            d="M3587.1 9540.24c-120.11,83.78 -285.95,40.47 -351.76,-92.44 -303.1,-623.87 140.15,-1432.61 140.15,-1432.61 8.55,548.79 177.31,987.8 291.7,1221.79 51.46,106.83 17.16,236.82 -80.09,303.25z" />
        <path class="fil0"
            d="M5082.71 8520.67c-340.25,-285.95 -325.99,-788.52 -325.99,-788.52 117.25,280.15 337.46,407.24 506.21,467.92 108.65,37.57 154.4,167.51 97.19,265.74 -54.3,104 -188.75,127.05 -277.41,54.87z" />
        <path class="fil0"
            d="M4710.97 9644.22c-371.76,-306.16 -457.55,-785.63 -457.55,-785.63 168.75,309.07 420.39,372.64 603.39,369.69 128.71,-2.85 231.66,101.14 234.51,231.08 2.85,199.31 -225.9,311.97 -380.35,184.86z" />
        <path class="fil1"
            d="M7258.99 3879.07c1584.31,-1158.25 3380.17,-1345.97 4975.94,-791.43 732.05,430.36 1384.12,1028.28 1895.97,1782.14 294.56,433.26 526.21,892.47 694.91,1366.19 -1853.12,-2723.71 -5299.05,-3694.21 -8081.57,-1655.03 -2.85,2.89 -5.7,5.74 -8.54,5.74 -194.5,135.79 -374.66,291.75 -537.67,462.16 260.26,-459.22 617.7,-860.71 1052.37,-1164.01 2.9,0 5.75,-2.85 8.6,-5.76z" />
        <path class="fil2"
            d="M11213.97 11749.82c8.6,-60.61 20.06,-164.6 31.46,-297.45 120.15,-31.82 260.25,-75.13 274.56,-75.13 34.29,-14.41 122.94,-57.77 122.94,-57.77l14.35 -28.86 91.45 -26.01 -5.69 -23.12 80.1 -54.85 -31.51 0 77.25 -46.22 8.59 -60.68c0,0 17.16,-37.51 19.95,-51.98 -131.49,0 -406.05,20.21 -623.41,51.98 5.7,-60.67 8.61,-121.3 11.46,-187.71 0,-17.36 2.84,-37.57 2.84,-57.78 214.51,-37.57 466.16,-86.62 477.61,-86.62 17.16,-2.91 114.35,-49.13 114.35,-49.13l2.9 -28.91 80.06 -46.22 -48.6 0c0,0 48.6,-37.51 54.3,-46.16 34.35,-34.72 77.19,-54.93 77.19,-54.93 0,0 -2.79,-46.21 0,-63.53 -160.1,0 -726.3,-2.89 -986.61,37.58 -100.05,-8.72 -197.24,31.75 -197.24,31.75 45.74,158.86 48.6,912.73 57.14,1340.18 -20,8.72 -37.14,14.46 -54.3,23.11 -120.15,66.43 25.75,389.94 102.96,349.53 491.85,-251.35 1018.05,-378.39 1040.95,-378.39 31.4,-11.55 42.85,-46.21 82.91,-80.87 42.85,-31.83 108.65,-60.69 108.65,-60.69l-68.59 -8.65 94.35 -46.21 11.44 -28.86c0,0 45.71,-46.22 45.71,-63.58 -285.9,-49.11 -737.75,60.63 -1069.52,176.16zm-551.89 -1042.67c37.14,-153.09 -285.95,-355.28 -360.36,-222.42 -88.6,363.93 -308.8,606.62 -454.64,730.75 5.7,-118.38 8.54,-236.82 11.44,-358.12 14.25,-439.06 -277.4,-404.4 -380.41,-375.48 -25.69,5.74 -37.14,28.86 -37.14,37.51 62.95,283.11 71.49,1646.38 91.5,1747.47 11.45,0 17.16,-28.86 28.6,-34.61 5.75,-2.95 25.76,11.5 25.76,11.5l28.6 -49.13 20 0c0,0 17.2,-43.31 22.9,-51.96 17.16,-20.21 51.45,-28.91 51.45,-28.91 0,0 34.36,-83.73 51.51,-103.94 22.84,-43.31 39.98,-72.23 39.98,-72.23 0,0 14.35,-147.3 25.75,-355.28 54.36,-23.1 114.42,-60.61 177.31,-101.09 128.7,153.07 340.36,519.94 397.51,745.22l22.9 23.12c0,0 51.5,-11.56 68.65,-11.56 17.15,-2.9 45.74,-54.88 45.74,-54.88 0,0 5.7,8.65 11.4,14.47 34.31,-109.8 -62.89,-430.41 -62.89,-430.41 0,0 97.2,167.52 88.66,401.5 68.64,-251.29 -111.51,-704.8 -306.01,-901.17 185.89,-170.4 348.9,-375.48 391.8,-560.35zm-2144.78 854.95c54.3,-130 108.65,-274.39 160.1,-427.5 48.65,147.35 105.8,297.5 165.9,441.96 -105.8,-11.56 -217.35,-14.47 -326,-14.47zm777.81 372.6c-2.85,-20.21 31.46,34.66 25.76,5.8 -291.71,-673 -331.76,-1123.55 -354.61,-1308.42 -11.44,-109.8 -102.94,-138.66 -197.35,-135.75 -60.06,-37.58 -177.24,-46.23 -374.61,-20.26 -45.74,646.97 -323.14,1285.36 -371.76,1423.95 -2.84,28.92 -2.84,60.69 2.85,92.44 5.76,17.36 31.46,-14.45 31.46,-14.45 0,0 -11.4,89.58 -5.69,101.08 11.43,34.67 45.74,40.48 45.74,40.48 0,0 11.44,72.21 14.29,78.03 11.45,11.5 31.46,-5.82 37.15,0 17.16,14.39 17.16,40.41 28.6,34.66 65.81,-106.89 125.85,-213.78 183.06,-323.52 168.69,-23.1 434.65,-60.67 546.21,-49.12 19.99,-2.9 37.14,-11.55 54.34,-17.3 102.95,216.57 200.15,366.78 251.66,366.78 0,0 17.15,2.89 39.99,-5.76 5.7,-5.74 17.2,-8.71 22.92,-14.45 8.59,-5.76 0,-11.56 8.59,-20.21 5.69,-5.76 25.7,-14.45 31.39,-28.9 8.61,-20.21 14.31,-43.33 17.2,-77.99 0,-14.4 -37.2,-109.75 -37.2,-127.09zm-1232.52 -1470.18c-5.74,-8.65 -68.64,-28.86 -88.65,-43.31 -8.59,-11.56 -25.75,-49.13 -25.75,-49.13l-34.29 17.36c0,0 0,-26.01 -11.45,-23.1 -163,291.69 -320.31,655.68 -440.41,1048.47 -62.95,-291.76 -100.1,-560.35 -145.86,-707.66 -28.59,-98.23 -140.14,-98.23 -271.65,-54.86 -25.75,17.3 -17.19,43.31 2.85,49.12 0,8.65 5.69,23.05 8.54,34.66 -91.5,153.05 -188.74,381.23 -271.65,615.22 -11.45,-147.35 -28.6,-311.97 -51.45,-479.47 -94.41,-638.38 -571.96,-352.43 -571.96,-352.43 -34.35,26.02 2.85,66.48 54.3,80.89 171.6,335.07 328.9,1383.54 357.51,1527.94 5.7,17.36 14.29,23.1 25.69,23.1 5.76,0 2.91,-86.63 2.91,-86.63 0,0 28.55,75.09 39.99,63.53l5.75 -8.65c77.19,69.32 217.31,17.34 217.31,17.34 20.05,-320.6 165.89,-785.62 257.4,-1062.92 51.46,294.6 117.25,675.83 243.05,1013.81 51.51,77.97 120.11,92.44 180.15,80.88 94.41,11.56 188.82,-23.1 188.82,-23.1 5.69,-531.49 100.04,-915.63 254.49,-1239.09 154.41,-329.27 94.35,-415.96 74.34,-441.96zm1375.52 -1088.89c11.45,-63.57 22.86,-164.65 31.44,-297.5 122.96,-34.66 260.26,-75.14 277.42,-75.14 34.35,-17.3 122.94,-57.72 122.94,-57.72l14.3 -31.82 88.65 -23.05 -5.74 -26 82.94 -54.93 -31.38 0 77.19 -46.23 8.54 -57.71c0,0 17.16,-37.56 20.06,-54.88 -134.4,0 -406.1,20.21 -623.46,51.98 5.75,-60.67 5.75,-121.3 8.59,-184.86 0,-20.21 2.85,-40.48 2.85,-60.67 214.51,-37.51 469.02,-83.74 480.46,-83.74 14.3,-5.8 114.41,-52.02 114.41,-52.02l2.79 -28.86 77.2 -46.22 -48.6 0c0,0 48.6,-37.57 57.19,-43.37 31.51,-34.67 77.25,-54.88 77.25,-54.88 0,0 -2.89,-49.05 0,-66.41 -160.14,0 -729.25,-2.91 -986.61,37.55 -100.1,-5.8 -200.19,31.77 -200.19,31.77 48.6,161.76 51.5,912.72 57.19,1340.23 -19.99,8.65 -37.14,17.3 -54.34,23.11 -117.27,69.28 28.59,389.89 102.95,349.47 494.75,-248.38 1018.05,-375.48 1043.8,-375.48 28.6,-14.46 42.9,-49.12 80.1,-83.78 42.85,-31.76 111.51,-60.68 111.51,-60.68l-71.5 -5.75 94.4 -49.12 14.3 -28.86c0,0 42.85,-46.22 45.74,-63.52 -286,-49.12 -740.65,60.63 -1072.41,179.06zm-580.56 -1216.04c-39.99,-118.39 -288.8,-118.39 -397.44,-69.26 -20.06,141.5 -42.9,534.32 -25.77,930.02 -131.55,-14.45 -286,-14.45 -423.24,2.85 8.59,-181.92 20.05,-386.99 25.75,-577.61 14.3,-462.15 -277.41,-413.09 -386.05,-378.42 -28.61,8.69 -37.2,28.9 -37.2,40.46 60.04,288.85 62.95,1681 80.1,1784.97 11.4,-2.84 31.44,-31.75 31.44,-31.75l20.01 -66.43 22.9 14.45 42.9 -57.76 71.49 -46.23 31.46 -95.33 31.4 -8.65 11.5 -63.59 17.14 23.17c0,0 5.7,-72.23 11.41,-182.01 142.99,-25.96 334.6,-63.53 434.71,-63.53 8.59,-2.89 22.84,-8.65 31.44,-14.4 20.01,213.72 54.36,410.15 108.65,548.74 5.74,0 11.44,0 17.19,-2.85 11.4,-2.91 17.16,-40.46 17.16,-40.46l31.45 0 11.4 -23.12 25.75 23.12 37.2 -153.11 34.31 5.8 14.28 -75.12 14.3 0 11.46 -23.06c0,0 -5.76,-479.47 60.04,-1013.86 28.61,-210.83 45.74,-317.72 22.85,-387.05zm-1901.66 -83.73c-88.7,-60.67 -203.05,-43.36 -263.1,-26.01 -11.45,5.8 -20.05,11.56 -28.6,20.21 -168.7,0 -317.46,5.8 -443.25,23.12 -131.55,20.19 -128.7,427.49 80.05,424.6 42.89,-2.91 168.75,-11.56 391.8,-23.12 22.85,525.69 20,1322.89 31.44,1403.75 11.46,-2.9 31.46,-92.43 31.46,-92.43l22.86 66.41 31.49 -51.96 20 0c0,0 14.3,-46.22 22.9,-52.02 17.16,-23.11 28.62,-2.85 28.62,-2.85l39.98 -89.54 20.01 0 54.36 -121.34c0,0 71.49,-574.76 85.81,-1080.25 102.93,-5.8 220.2,-11.54 346.05,-17.34 214.45,-69.34 294.54,-236.84 303.1,-329.27 -263.1,-20.21 -529.06,-40.48 -774.95,-51.98zm2027.52 -2076.73c-2.85,-8.65 -5.7,-14.45 -5.7,-23.12 -42.9,-109.79 -111.54,-225.26 -111.54,-225.26 0,0 -28.61,8.65 -42.9,-5.8 -8.54,-8.67 -28.61,-89.54 -34.31,-95.29 -5.74,-5.81 -14.28,31.76 -20.05,25.95 -8.54,-5.74 -11.4,-51.97 -17.16,-57.77 -42.9,156 -97.2,736.57 -114.4,1187.11 -108.65,-231.02 -294.5,-635.41 -417.5,-970.48 -60.04,-158.86 -251.65,-167.51 -386.05,-112.65 -60.05,8.71 -102.95,23.12 -102.95,23.12 60.05,207.96 42.9,1634.83 60.05,1735.9 11.44,-17.36 20.06,-26.01 28.6,-28.91 14.3,-8.65 45.75,-8.65 45.75,-8.65l34.35 -83.73 28.55 23.06 31.51 -80.84 37.14 -20.25 60.05 -124.2 17.16 5.8c0,0 34.34,-381.29 60.1,-788.52 157.26,306.15 334.56,661.43 509.01,918.48 17.14,103.98 51.45,141.54 117.25,150.2 91.5,8.65 248.79,-34.66 268.8,-89.53 22.9,-72.23 -80.05,-147.31 -45.74,-1354.64zm-2731.03 563.2c0,372.64 223.05,872.3 754.96,872.3 197.36,0 557.66,-306.15 557.66,-935.82 0,-678.75 -460.46,-817.39 -669.17,-722.12 -40.05,17.36 -48.64,46.22 -48.64,60.67 0,8.65 234.51,17.37 277.41,135.76 -54.36,-95.34 -260.25,-109.74 -254.51,-101.09 8.61,11.56 -31.44,26.01 -31.44,26.01l17.14 5.76c0,0 360.31,-28.86 360.31,595.01 0,491.02 -223.05,713.4 -300.26,704.75 -48.64,-5.76 -283.11,-158.86 -283.11,-644.08 0,-465.02 214.46,-586.36 214.46,-649.88 0,-92.45 -185.85,-248.39 -308.85,-184.86 -14.3,8.65 -285.96,190.6 -285.96,837.59z" />
        <path class="fil0"
            d="M11319.83 11749.82c8.54,-60.61 19.99,-164.6 31.4,-297.45 120.14,-31.82 260.29,-75.13 274.54,-75.13 34.31,-14.41 122.96,-57.77 122.96,-57.77l14.35 -28.86 91.5 -26.01 -5.69 -23.12 80.04 -54.85 -31.5 0 77.25 -46.22 8.6 -60.68c0,0 17.16,-37.51 20.01,-51.98 -131.55,0 -406.11,20.21 -623.42,51.98 5.7,-60.67 8.56,-121.3 11.45,-187.71 0,-17.36 2.81,-37.57 2.81,-57.78 214.5,-37.57 466.2,-86.62 477.6,-86.62 17.14,-2.91 114.4,-49.13 114.4,-49.13l2.85 -28.91 80.1 -46.22 -48.66 0c0,0 48.66,-37.51 54.36,-46.16 34.3,-34.72 77.19,-54.93 77.19,-54.93 0,0 -2.84,-46.21 0,-63.53 -160.08,0 -726.35,-2.89 -986.61,37.58 -100.04,-8.72 -197.28,31.75 -197.28,31.75 45.74,158.86 48.6,912.73 57.14,1340.18 -19.94,8.72 -37.09,14.46 -57.14,23.11 -117.27,66.43 28.59,389.94 105.78,349.53 491.87,-251.35 1018.07,-378.39 1040.97,-378.39 31.45,-11.55 42.9,-46.21 82.9,-80.87 42.9,-31.83 108.71,-60.69 108.71,-60.69l-68.66 -8.65 94.35 -46.21 11.45 -28.86c0,0 42.9,-46.22 45.74,-63.58 -285.95,-49.11 -737.79,60.63 -1069.5,176.16zm-551.9 -1042.67c37.09,-153.09 -286,-355.28 -360.4,-222.42 -88.61,363.93 -308.81,606.62 -454.66,730.75 5.69,-118.38 8.54,-236.82 11.45,-358.12 14.25,-439.06 -277.41,-404.4 -380.35,-375.48 -28.61,5.74 -37.2,28.86 -37.2,37.51 62.95,283.11 71.49,1646.38 91.5,1747.47 8.59,0 17.19,-28.86 28.66,-34.61 5.69,-2.95 25.68,11.5 25.68,11.5l28.62 -49.13 20.05 0c0,0 17.16,-43.31 22.85,-51.96 17.2,-20.21 48.61,-28.91 48.61,-28.91 0,0 37.2,-83.73 54.34,-103.94 22.86,-43.31 40.01,-72.23 40.01,-72.23 0,0 14.34,-147.3 25.74,-355.28 54.36,-23.1 114.4,-60.61 174.51,-101.09 131.55,153.07 343.15,519.94 400.3,745.22l22.91 23.12c0,0 51.5,-11.56 68.65,-11.56 17.16,-2.9 42.89,-54.88 42.89,-54.88 0,0 8.55,8.65 14.25,14.47 34.36,-109.8 -62.9,-430.41 -62.9,-430.41 0,0 97.26,167.52 88.65,401.5 68.66,-251.29 -111.49,-704.8 -305.94,-901.17 185.85,-170.4 348.84,-375.48 391.8,-560.35zm-2144.82 854.95c54.3,-130 108.65,-274.39 160.1,-427.5 48.64,147.35 105.85,297.5 165.9,441.96 -105.8,-11.56 -217.35,-14.47 -326,-14.47zm777.81 372.6c-2.85,-20.21 31.5,34.66 25.75,5.8 -291.7,-673 -331.75,-1123.55 -354.6,-1308.42 -11.45,-109.8 -102.96,-138.66 -197.3,-135.75 -60.04,-37.58 -177.31,-46.23 -374.66,-20.26 -45.74,646.97 -323.15,1285.36 -371.75,1423.95 -2.85,28.92 -2.85,60.69 2.84,92.44 5.76,17.36 31.46,-14.45 31.46,-14.45 0,0 -11.4,89.58 -5.69,101.08 11.43,34.67 45.74,40.48 45.74,40.48 0,0 11.44,72.21 14.29,78.03 11.45,11.5 31.46,-5.82 37.15,0 17.2,14.39 17.2,40.41 28.65,34.66 65.75,-106.89 125.8,-213.78 183.01,-323.52 168.69,-23.1 434.71,-60.67 546.19,-49.12 20.06,-2.9 37.2,-11.55 54.36,-17.3 102.96,216.57 200.15,366.78 251.66,366.78 0,0 17.15,2.89 40.04,-5.76 5.71,-5.74 17.16,-8.71 22.85,-14.45 8.61,-5.76 0,-11.56 8.61,-20.21 5.69,-5.76 25.75,-14.45 31.44,-28.9 8.55,-20.21 14.3,-43.33 17.16,-77.99 0,-14.4 -37.2,-109.75 -37.2,-127.09zm-1232.52 -1470.18c-5.74,-8.65 -68.64,-28.86 -88.65,-43.31 -8.59,-11.56 -25.75,-49.13 -25.75,-49.13l-34.3 17.36c0,0 0,-26.01 -11.44,-23.1 -163.01,291.69 -320.31,655.68 -440.41,1048.47 -65.75,-291.76 -100.1,-560.35 -145.86,-707.66 -28.59,-98.23 -140.1,-98.23 -271.65,-54.86 -25.75,17.3 -17.16,43.31 2.85,49.12 0,8.65 5.7,23.05 8.54,34.66 -91.5,153.05 -188.69,381.23 -271.65,615.22 -11.4,-147.35 -28.61,-311.97 -51.45,-479.47 -94.41,-638.38 -571.96,-352.43 -571.96,-352.43 -34.35,26.02 2.85,66.48 54.3,80.89 171.6,335.07 328.9,1383.54 357.5,1527.94 5.69,17.36 14.3,23.1 25.7,23.1 5.76,0 2.91,-86.63 2.91,-86.63 0,0 28.6,75.09 40.05,63.53l5.69 -8.65c77.19,69.32 217.36,17.34 217.36,17.34 19.99,-320.6 165.84,-785.62 257.34,-1062.92 51.51,294.6 117.26,675.83 243.06,1013.81 51.51,77.97 120.16,92.44 180.21,80.88 94.35,11.56 188.7,-23.1 188.7,-23.1 5.74,-531.49 100.09,-915.63 254.55,-1239.09 154.41,-329.27 94.35,-415.96 74.34,-441.96zm1375.52 -1088.89c11.44,-63.57 22.9,-164.65 31.45,-297.5 122.94,-34.66 260.19,-75.14 274.56,-75.14 37.2,-17.3 125.79,-57.72 125.79,-57.72l14.35 -31.82 88.65 -23.05 -5.74 -26 82.95 -54.93 -31.45 0 77.2 -46.23 8.54 -57.71c0,0 17.2,-37.56 20.06,-54.88 -134.4,0 -406.12,20.21 -623.46,51.98 5.76,-60.67 5.76,-121.3 8.61,-184.86 0,-20.21 2.84,-40.48 2.84,-60.67 214.51,-37.51 469,-83.74 480.46,-83.74 14.3,-5.8 114.4,-52.02 114.4,-52.02l2.8 -28.86 77.25 -46.22 -48.6 0c0,0 48.6,-37.57 57.14,-43.37 31.51,-34.67 77.25,-54.88 77.25,-54.88 0,0 -2.84,-49.05 0,-66.41 -160.16,0 -729.26,-2.91 -989.45,37.55 -97.26,-5.8 -197.35,31.77 -197.35,31.77 48.6,161.76 51.5,912.72 57.19,1340.23 -20,8.65 -37.14,17.3 -54.3,23.11 -117.3,69.28 28.55,389.89 102.9,349.47 494.75,-248.38 1018.11,-375.48 1043.81,-375.48 28.6,-14.46 42.9,-49.12 80.1,-83.78 42.9,-31.76 111.51,-60.68 111.51,-60.68l-71.51 -5.75 94.41 -49.12 14.3 -28.86c0,0 42.9,-46.22 45.75,-63.52 -286.02,-49.12 -740.66,60.63 -1072.42,179.06zm-580.51 -1216.04c-40.05,-118.39 -288.85,-118.39 -397.51,-69.26 -20.05,141.5 -42.9,534.32 -25.75,930.02 -131.55,-14.45 -286,-14.45 -423.2,2.85 8.55,-181.92 20.01,-386.99 25.71,-577.61 14.3,-462.15 -277.41,-413.09 -386.06,-378.42 -28.6,8.69 -37.2,28.9 -37.2,40.46 60.05,288.85 62.9,1681 80.09,1784.97 11.46,-2.84 31.46,-31.75 31.46,-31.75l20 -66.43 22.91 14.45 42.9 -57.76 71.49 -46.23 31.45 -95.33 31.46 -8.65 11.43 -63.59 17.16 23.17c0,0 5.7,-72.23 11.4,-182.01 143.01,-25.96 334.61,-63.53 434.71,-63.53 8.61,-2.89 22.86,-8.65 31.46,-14.4 20.05,213.72 54.35,410.15 108.7,548.74 5.69,0 11.4,0 17.16,-2.85 11.4,-2.91 17.14,-40.46 17.14,-40.46l31.46 0 11.44 -23.12 25.7 23.12 37.2 -153.11 34.29 5.8 14.3 -75.12 14.3 0 11.44 -23.06c0,0 -5.69,-479.47 60.06,-1013.86 28.59,-210.83 45.74,-317.72 22.9,-387.05zm-1901.71 -83.73c-88.65,-60.67 -203.06,-43.36 -263.1,-26.01 -14.3,5.8 -20.05,11.56 -28.61,20.21 -168.69,0 -317.45,5.8 -443.25,23.12 -131.55,20.19 -128.71,427.49 80.06,424.6 42.9,-2.91 168.75,-11.56 391.8,-23.12 22.9,525.69 20.01,1322.89 31.44,1403.75 11.46,-2.9 31.45,-92.43 31.45,-92.43l22.91 66.41 31.45 -51.96 20.01 0c0,0 14.3,-46.22 22.9,-52.02 17.15,-23.11 28.59,-2.85 28.59,-2.85l40.01 -89.54 20.05 0 54.3 -121.34c0,0 71.51,-574.76 85.85,-1080.25 102.89,-5.8 220.14,-11.54 346,-17.34 214.46,-69.34 294.56,-236.84 303.11,-329.27 -263.05,-20.21 -529.06,-40.48 -774.95,-51.98zm2027.52 -2076.73c-2.85,-8.65 -5.7,-14.45 -5.7,-23.12 -42.9,-109.79 -111.56,-225.26 -111.56,-225.26 0,0 -28.59,8.65 -42.89,-5.8 -8.55,-8.67 -28.54,-89.54 -34.3,-95.29 -5.69,-5.81 -14.3,31.76 -20,25.95 -8.59,-5.74 -11.44,-51.97 -17.2,-57.77 -42.84,156 -97.19,736.57 -114.35,1187.11 -108.7,-231.02 -294.55,-635.41 -417.55,-970.48 -60,-158.86 -251.65,-167.51 -386.06,-112.65 -60.04,8.71 -102.94,23.12 -102.94,23.12 60.1,207.96 42.9,1634.83 60.1,1735.9 11.4,-17.36 20.01,-26.01 28.55,-28.91 14.29,-8.65 45.79,-8.65 45.79,-8.65l34.31 -83.73 28.6 23.06 31.44 -80.84 37.16 -20.25 60.05 -124.2 17.15 5.8c0,0 34.35,-381.29 60.1,-788.52 157.25,306.15 334.61,661.43 509,918.48 17.16,103.98 51.51,141.54 117.27,150.2 91.54,8.65 248.8,-34.66 268.8,-89.53 20.05,-72.23 -80.06,-147.31 -45.74,-1354.64zm-2731.02 563.2c0,372.64 223.05,872.3 754.95,872.3 197.35,0 554.79,-306.15 554.79,-935.82 0,-678.75 -457.53,-817.39 -666.3,-722.12 -40.05,17.36 -48.6,46.22 -48.6,60.67 0,8.65 234.5,17.37 277.35,135.76 -54.35,-95.34 -260.19,-109.74 -254.5,-101.09 8.59,11.56 -31.46,26.01 -31.46,26.01l17.16 5.76c0,0 360.3,-28.86 360.3,595.01 0,491.02 -223.05,713.4 -300.25,704.75 -48.6,-5.76 -283.11,-158.86 -283.11,-644.08 0,-465.02 214.51,-586.36 214.51,-649.88 0,-92.45 -185.91,-248.39 -308.91,-184.86 -14.28,8.65 -285.93,190.6 -285.93,837.59z" />
        <path class="fil0"
            d="M14957.35 8023.84c120.1,-83.73 285.96,-37.51 351.75,95.33 303.15,623.88 -140.1,1432.62 -140.1,1432.62 -8.61,-548.8 -177.31,-987.81 -291.71,-1221.73 -51.5,-106.89 -17.14,-236.88 80.06,-306.22z" />
        <path class="fil0"
            d="M13461.74 9046.36c340.3,285.96 326,785.63 326,785.63 -117.26,-277.3 -337.46,-407.3 -506.22,-465.02 -105.78,-40.47 -154.38,-167.56 -97.19,-268.66 54.36,-101.07 188.76,-127.09 277.41,-51.96z" />
        <path class="fil0"
            d="M13833.54 7922.77c371.72,306.15 457.52,785.62 457.52,785.62 -165.9,-309.05 -420.41,-372.58 -603.41,-369.67 -128.64,0 -231.66,-101.09 -234.46,-231.08 -2.9,-199.33 225.9,-311.91 380.35,-184.86z" />
        <polygon class="fil3"
            points="13041.34,5528.31 9698.3,6126.23 9652.61,5872.03 12995.63,5274.17 " />
        <path class="fil3"
            d="M12995.63 5586.07l-546.2 98.25c-60.11,11.56 -117.3,-31.82 -128.75,-92.49l-22.86 -129.95c-11.45,-60.68 28.6,-118.44 88.66,-130l546.2 -98.19c60.06,-11.56 117.2,31.77 128.64,92.45l22.95 129.93c11.4,60.68 -28.65,118.46 -88.65,130z" />
        <path class="fil3"
            d="M10304.61 6068.46l-543.34 95.33c-60.06,11.56 -117.27,-28.9 -128.71,-89.58l-22.85 -132.86c-11.45,-60.67 28.55,-118.44 88.59,-130l546.27 -95.27c60.04,-11.56 117.25,28.86 128.64,89.53l22.91 132.85c8.59,60.67 -31.5,118.44 -91.51,130z" />
        <polygon class="fil4"
            points="12775.43,5464.79 12761.08,5499.45 12709.63,5435.87 12721.08,5401.21 " />
        <polygon class="fil4"
            points="9924.26,5973.12 9949.96,6001.98 9978.56,5924.05 9952.86,5895.14 " />
        <path class="fil5"
            d="M12755.39 5528.31c-42.9,8.65 -82.96,-20.21 -91.56,-63.53 -5.7,-43.37 22.95,-86.68 62.96,-92.44 42.9,-8.65 85.74,20.21 91.5,63.52 8.59,43.38 -20.01,83.8 -62.9,92.45z" />
        <path class="fil5"
            d="M9964.31 6027.99c-42.9,5.8 -82.96,-23.06 -88.65,-66.43 -8.61,-40.4 20,-83.78 62.9,-89.53 42.9,-8.65 82.9,20.21 91.5,63.52 5.74,43.37 -22.85,83.79 -65.75,92.44z" />
        <path class="fil3"
            d="M11768.78 8107.63c-111.51,20.21 -228.75,-98.18 -257.41,-265.74 -28.59,-167.51 37.21,-320.62 151.61,-340.83 111.5,-20.21 228.74,98.24 257.4,265.74 28.55,167.51 -37.2,320.56 -151.6,340.83z" />
        <path class="fil3"
            d="M12549.47 9401.64l-102.94 -52.02c2.9,-20.21 2.9,-40.42 0,-60.68 0,0 0,0 0,-2.85l111.51 20.21c2.89,31.76 0,63.53 -8.56,95.34z" />
        <path class="fil3"
            d="M12518.03 9494.02l-85.81 -77.97c5.7,-17.32 8.61,-34.67 11.4,-51.98l103 51.98c-5.74,26.01 -17.14,51.96 -28.59,77.97z" />
        <path class="fil3"
            d="M12103.37 9693.34l51.45 -103.99c17.16,2.91 34.31,2.91 51.45,0 2.91,2.91 5.76,2.91 8.61,0 2.91,0 2.91,0 2.91,0l-20.06 112.65c-31.45,2.89 -62.95,0 -94.35,-8.66z" />
        <path class="fil3"
            d="M12011.83 9661.58l77.25 -86.68c8.59,2.89 17.15,5.8 28.54,8.65 8.6,2.95 14.36,2.95 22.95,5.8l-51.5 101.09c-28.61,-5.76 -54.36,-17.3 -77.25,-28.86z" />
        <path class="fil3"
            d="M11866.03 9528.68l108.65 -34.66c14.3,14.45 28.61,28.92 45.74,43.31l-94.34 66.48c-22.91,-23.1 -42.9,-46.21 -60.05,-75.13z" />
        <path class="fil3"
            d="M11823.14 9439.15l114.4 -5.74c8.54,17.3 17.16,31.75 28.59,46.2l-108.69 37.51c-14.3,-23.1 -25.75,-49.11 -34.29,-77.97z" />
        <path class="fil3"
            d="M11811.67 9242.73l102.96 52.02c0,20.21 0,43.32 2.85,63.53l-111.51 -20.21c-2.91,-31.76 0,-63.53 5.69,-95.34z" />
        <path class="fil3"
            d="M11845.97 9150.35l85.8 77.93c-5.69,14.45 -11.4,31.81 -14.28,52.02l-100.11 -52.02c5.76,-25.95 14.3,-51.92 28.6,-77.93z" />
        <path class="fil3"
            d="M11951.78 9219.63c0,-2.85 2.91,-5.76 2.91,-8.65 0,0 2.84,-2.91 2.84,-5.76 2.85,-2.89 2.85,-5.8 2.85,-8.65 2.85,0 2.85,-2.89 5.74,-2.89l51.46 8.65 5.69 46.2 -77.19 -14.45c0,-2.85 0,-5.8 2.85,-8.65 0,-2.89 0,-2.89 2.85,-5.8z" />
        <path class="fil3"
            d="M12063.28 8959.67l8.65 118.46c-17.2,5.74 -31.51,14.39 -45.75,26.01l-37.2 -109.8c25.75,-14.41 48.6,-26.01 74.31,-34.67z" />
        <path class="fil3"
            d="M12260.62 8948.12l-51.45 106.89c-22.85,-2.89 -42.9,-2.89 -62.9,0l17.16 -112.64c34.29,-2.9 65.79,0 97.19,5.75z" />
        <path class="fil3"
            d="M12352.18 8982.78l-77.25 86.68c-17.16,-5.8 -34.3,-11.6 -51.45,-14.45l51.45 -101.08c25.81,5.74 51.5,14.4 77.25,28.85z" />
        <path class="fil3"
            d="M12380.73 9000.14l8.59 54.87 -60.05 43.31c-11.4,-8.65 -25.75,-17.3 -40.05,-23.1l77.2 -86.62c2.9,2.89 8.59,5.74 14.3,11.54z" />
        <polygon class="fil3"
            points="12332.13,8633.32 12443.62,8624.65 12446.53,8656.42 12337.84,8662.18 " />
        <polygon class="fil3"
            points="12449.43,8670.87 12455.12,8699.73 12343.58,8708.38 12340.73,8676.63 " />
        <polygon class="fil3"
            points="12457.98,8714.19 12463.68,8745.95 12352.18,8751.76 12346.43,8722.85 " />
        <polygon class="fil3"
            points="12466.58,8760.41 12472.28,8789.27 12360.74,8797.92 12354.98,8766.16 " />
        <polygon class="fil3"
            points="12475.13,8806.63 12477.98,8835.49 12369.33,8841.29 12363.59,8812.39 " />
        <polygon class="fil3"
            points="12480.82,8849.94 12486.53,8878.8 12375.02,8887.51 12372.18,8855.74 " />
        <polygon class="fil3"
            points="12489.44,8896.16 12495.14,8925.02 12383.63,8930.81 12377.93,8901.92 " />
        <polygon class="fil3"
            points="12386.48,8945.27 12497.98,8939.47 12503.68,8968.33 12392.18,8977.04 " />
        <polygon class="fil3"
            points="12506.57,8985.69 12509.44,9014.55 12400.79,9020.35 12395.09,8991.49 " />
        <polygon class="fil3"
            points="12409.33,9081.02 12520.88,9075.22 12526.64,9104.14 12415.07,9109.88 " />
        <polygon class="fil3"
            points="12406.53,9066.57 12403.63,9034.8 12512.33,9029 12518.03,9057.86 " />
        <polygon class="fil3"
            points="12417.92,9127.24 12529.49,9118.53 12535.18,9147.45 12423.68,9156.1 " />
        <polygon class="fil3"
            points="12440.84,8610.21 12329.28,8618.86 12323.57,8587.11 12435.08,8581.35 " />
        <path class="fil3"
            d="M12406.53 9144.55l-17.2 5.8c-14.3,-14.45 -28.59,-28.91 -45.74,-43.36l48.6 -34.68 14.35 72.24z" />
        <path class="fil3"
            d="M12409.33 9159l5.74 31.77c-5.74,-8.65 -11.44,-17.36 -17.14,-26.01l11.4 -5.76z" />
        <polygon class="fil3"
            points="12426.49,9170.56 12538.08,9164.76 12543.77,9202.33 12432.23,9210.98 " />
        <polygon class="fil3"
            points="12432.23,8566.9 12320.68,8572.65 12314.98,8543.79 12426.49,8535.13 " />
        <path class="fil3"
            d="M12337.84 9522.94l0 0c-5.71,2.9 -11.41,8.65 -19.96,11.55l8.54 -34.67c8.6,-2.89 20.01,-8.65 28.55,-14.45l2.91 20.26c-5.7,5.75 -14.3,11.49 -20.05,17.31z" />
        <path class="fil3"
            d="M12134.78 9572.05l51.55 -60.68c14.25,2.9 31.46,5.74 48.6,8.65l-28.66 54.88c-25.69,2.89 -48.54,0 -71.49,-2.85z" />
        <path class="fil3"
            d="M11974.67 9468.01l102.95 -34.6c11.45,17.3 25.75,28.86 39.99,40.4l-77.19 57.78c-25.7,-17.31 -48.54,-37.57 -65.75,-63.58z" />
        <path class="fil3"
            d="M11931.77 9280.29c2.85,-2.91 2.85,-5.76 2.85,-8.65 0,-2.91 0,-5.76 2.91,-8.65 0,-2.91 0,-5.8 0,-5.8 0,-2.91 2.79,-5.76 2.79,-8.67l85.85 14.47 8.54 46.21 -102.95 -17.35c0,-2.91 0,-2.91 0,-5.76 0,-2.89 0,-2.89 0,-5.8z" />
        <path class="fil3"
            d="M11974.67 9179.21c0,-2.85 2.85,-5.8 2.85,-8.65 2.84,0 2.84,-2.9 5.75,-5.8 2.85,-2.85 2.85,-2.85 5.7,-5.76 0,-2.9 2.91,-2.9 5.7,-5.8 0,-2.85 2.9,-5.75 5.75,-5.75 0,-2.9 2.85,-5.8 2.85,-5.8 2.85,0 2.85,0 2.85,0l8.59 46.21 -40.05 -8.65z" />
        <path class="fil3"
            d="M11934.62 9366.98c-2.85,-5.81 -2.85,-11.56 -2.85,-17.36 0,0 0,-2.9 0,-5.81 0,-2.84 -2.85,-5.75 -2.85,-8.65 0,-2.84 0,-5.75 0,-8.65 0,-2.91 0,-5.75 0,-8.65 0,-2.91 0,-2.91 0,-5.8 0,-2.86 0,-2.86 0,-5.76l108.65 20.21 2.85 20.21c2.91,0 2.91,0 2.91,0 0,2.9 0,2.9 0,2.9 0,5.8 0,8.65 2.79,14.45l-105.8 5.76c-2.79,0 -2.79,0 -2.79,0l-2.91 2.9c0,-2.9 0,-5.75 0,-5.75z" />
        <path class="fil3"
            d="M11937.53 9384.28c0,0 2.79,2.91 2.79,0l108.71 -5.8c5.69,14.45 11.43,28.92 20.05,43.37l-102.96 31.75c-11.43,-20.19 -22.9,-43.31 -28.59,-69.32z" />
        <path class="fil3"
            d="M11948.93 9002.99c-5.7,2.91 -11.4,8.71 -17.16,14.47l-57.19 2.89c-2.85,0 -2.85,0 -2.85,0l-2.85 -28.86 108.65 -8.71c-8.59,5.82 -17.15,11.56 -25.75,17.36 0,2.85 -2.85,2.85 -2.85,2.85z" />
        <polygon class="fil3"
            points="11788.82,8540.88 11900.33,8535.13 11906.02,8563.99 11794.53,8572.65 " />
        <polygon class="fil3"
            points="11797.37,8587.11 11906.02,8581.35 11911.78,8610.21 11803.07,8616 " />
        <path class="fil3"
            d="M11805.98 8633.32l108.65 -8.67 5.74 28.86 -108.7 8.67c-2.9,0 -2.9,0 -2.9,0l-2.79 -28.86z" />
        <polygon class="fil3"
            points="11811.67,8676.63 11923.18,8670.87 11928.92,8699.73 11820.23,8705.54 11817.37,8705.54 " />
        <polygon class="fil3"
            points="11820.23,8722.85 11931.77,8714.19 11937.53,8743.05 11825.92,8751.76 " />
        <polygon class="fil3"
            points="11828.83,8766.16 11937.53,8760.41 11943.22,8789.27 11834.53,8795.07 " />
        <path class="fil3"
            d="M11837.42 8812.39l108.65 -8.67 5.7 31.77 -108.65 5.8c-2.85,0 -2.85,0 -2.85,0l-2.85 -28.9z" />
        <polygon class="fil3"
            points="11843.12,8855.74 11954.69,8849.94 11960.38,8878.8 11851.72,8884.6 11848.88,8884.6 " />
        <polygon class="fil3"
            points="11851.72,8901.92 11963.23,8893.25 11968.93,8925.02 11857.43,8930.81 " />
        <path class="fil3"
            d="M11860.34 8945.27l108.6 -5.8 5.74 28.86 -108.65 5.8c0,0 0,0 0,2.91l-5.69 -31.77z" />
        <polygon class="fil3"
            points="11897.42,8520.67 11788.82,8526.43 11785.93,8526.43 11780.23,8497.57 11891.72,8491.77 " />
        <path class="fil3"
            d="M11880.28 9066.57l-5.69 -31.77 40.05 -2.89c-5.7,5.74 -11.46,11.56 -17.21,17.3 -2.79,2.91 -5.7,5.8 -8.55,8.65 -2.84,2.95 -5.69,5.8 -8.59,8.71z" />
        <path class="fil3"
            d="M11974.67 9002.99l37.15 109.8c-2.8,2.9 -2.8,5.74 -5.69,5.74 -14.25,14.47 -25.77,26.02 -37.2,40.47l-65.76 -95.34c22.91,-23.1 45.75,-43.31 71.5,-60.67z" />
        <path class="fil3"
            d="M11920.38 9375.63c2.8,14.45 5.7,28.86 11.4,43.31l-114.4 5.76c-2.85,-11.56 -5.7,-23.06 -8.6,-37.51 0,-8.71 -2.79,-20.21 -2.79,-31.77l114.4 20.21z" />
        <path class="fil3"
            d="M12131.98 9485.37c11.4,8.65 25.75,14.45 37.14,20.26l-51.51 63.52c-22.84,-8.65 -42.85,-17.35 -62.89,-28.91l77.25 -54.87z" />
        <path class="fil3"
            d="M12226.33 9572.05l-2.85 0 28.6 -52.03c8.54,-2.91 17.16,-2.91 25.7,-2.91 11.44,-2.84 20.05,-5.74 31.51,-8.65l-8.55 37.58c-22.95,11.55 -48.65,23.1 -74.4,26.01z" />
        <path class="fil3"
            d="M12312.13 9557.59c8.55,-5.8 17.15,-11.55 25.71,-17.36l37.18 109.79c-25.75,14.41 -48.6,26.01 -77.19,34.66l-5.69 -118.43c5.69,-2.91 14.3,-5.76 20,-8.66z" />
        <path class="fil3"
            d="M12349.27 9531.59c8.61,-5.75 14.31,-11.56 20.06,-17.31 0,-2.9 0,-2.9 2.85,-2.9 5.75,-8.65 14.3,-17.36 22.91,-26.01l65.74 92.43c-22.9,26.01 -45.75,46.22 -74.34,63.58l-37.21 -109.79z" />
        <path class="fil3"
            d="M12372.18 9488.27l-2.85 -14.46c14.3,-11.54 28.61,-23.1 37.2,-40.4 -8.59,20.19 -20.05,40.4 -34.35,54.86z" />
        <path class="fil3"
            d="M12443.62 9268.73l-8.54 -43.31 111.54 -8.65 5.71 37.51c2.9,11.6 2.9,23.1 5.7,34.66l-114.42 -20.21z" />
        <path class="fil3"
            d="M12360.74 8471.56c31.44,-5.76 54.34,2.89 57.19,8.65l5.76 40.46 -111.55 8.65 -2.84 -28.86c-2.85,-8.69 17.14,-23.16 51.45,-28.9z" />
        <path class="fil3"
            d="M12149.13 8942.37l-20.06 115.49c-14.25,2.95 -28.59,5.8 -42.84,11.6l-8.61 -112.63c14.3,-5.81 25.75,-8.71 37.2,-8.71 11.4,-2.85 22.86,-5.75 34.3,-5.75z" />
        <path class="fil3"
            d="M11883.17 9089.67c2.85,-2.89 5.69,-8.65 11.45,-11.54l65.75 92.43c-8.6,14.45 -17.16,28.86 -22.85,40.42l-85.81 -75.08c8.61,-14.46 20.01,-31.76 31.45,-46.23z" />
        <path class="fil3"
            d="M11937.53 9612.47l94.35 -66.43c14.25,8.65 28.59,17.3 40.05,23.1l-74.35 86.64c-20.06,-14.41 -40.05,-26.01 -60.05,-43.31z" />
        <path class="fil3"
            d="M12214.88 9702l17.16 -115.5c17.14,-2.95 31.5,-8.71 45.74,-11.6l5.7 112.63c-11.4,5.81 -22.86,8.71 -37.1,8.71 -11.45,2.85 -20.05,2.85 -31.5,5.76z" />
        <path class="fil3"
            d="M12469.39 9566.25l-65.76 -95.3c8.59,-11.6 14.29,-26.01 22.86,-40.46l82.96 77.97c-11.46,20.21 -22.92,40.42 -40.05,57.79z" />
        <path class="fil3"
            d="M11708.72 8093.18l111.51 -5.82 5.69 28.92 -108.59 8.71c0,0 0,0 -2.91,0l-5.7 -31.81z" />
        <path class="fil3"
            d="M11717.33 8139.38l111.5 -8.65 5.7 31.77 -108.65 5.74c-2.85,0 -2.85,0 -2.85,0l-5.69 -28.86z" />
        <polygon class="fil3"
            points="11725.88,8182.71 11837.42,8176.95 11840.27,8205.86 11731.58,8214.53 " />
        <polygon class="fil3"
            points="11734.48,8228.92 11843.12,8223.18 11848.88,8252.04 11740.18,8257.84 " />
        <path class="fil3"
            d="M11740.18 8272.29l111.54 -5.8 5.7 28.9 -108.7 8.67c0,0 0,0 -2.8,0l-5.74 -31.77z" />
        <path class="fil3"
            d="M11748.72 8318.45l111.61 -5.74 5.69 28.91 -108.71 5.75c-2.84,0 -2.84,0 -2.84,0l-5.75 -28.92z" />
        <polygon class="fil3"
            points="11757.32,8361.82 11868.88,8356.01 11871.73,8384.92 11763.08,8393.58 " />
        <polygon class="fil3"
            points="11765.93,8407.98 11874.58,8402.23 11880.28,8431.14 11771.67,8436.9 " />
        <path class="fil3"
            d="M11771.67 8451.35l111.51 -5.76 5.69 28.86 -108.64 8.67c0,0 0,0 -2.85,0l-5.71 -31.77z" />
        <path class="fil3"
            d="M11780.23 8497.57l111.49 -5.8 5.7 28.9 -108.6 5.76c-2.89,0 -2.89,0 -2.89,0l-5.7 -28.86z" />
        <polygon class="fil3"
            points="11817.37,8072.97 11708.72,8078.71 11702.98,8049.85 11811.67,8041.2 " />
        <path class="fil3"
            d="M11697.28 8023.84c0,-5.74 17.15,-20.2 51.45,-28.86 34.36,-5.8 57.26,2.85 57.26,8.66l2.79 23.11 -108.6 8.71 -2.9 -11.62z" />
        <polygon class="fil3"
            points="11339.81,7261.33 11251.17,7330.65 11231.18,7310.44 11316.92,7241.12 " />
        <polygon class="fil3"
            points="11305.52,7229.57 11219.72,7298.9 11199.72,7278.69 11285.48,7209.36 " />
        <path class="fil3"
            d="M11274.01 7197.8l-85.74 69.33 -20.06 -23.1 85.81 -66.48c0,-2.85 0,-2.85 0,-2.85l20 23.1z" />
        <path class="fil3"
            d="M11242.61 7166.04l-85.85 69.34 -22.85 -23.17 85.8 -66.43c2.85,0 2.85,-2.89 2.85,-2.89l20.05 23.15z" />
        <path class="fil3"
            d="M11211.11 7134.22l-85.81 69.34 -22.84 -23.06 85.81 -69.32c0,0 0,0 2.85,0l19.99 23.04z" />
        <path class="fil3"
            d="M11179.66 7099.62l-85.74 69.28 -22.91 -20.21 85.75 -69.32c0,0 0,0 2.9,0l20 20.25z" />
        <polygon class="fil3"
            points="11148.22,7067.81 11059.52,7137.13 11039.57,7116.92 11125.31,7047.6 " />
        <polygon class="fil3"
            points="11116.76,7036.05 11028.12,7105.36 11008.07,7085.17 11093.93,7015.84 " />
        <path class="fil3"
            d="M11085.32 7004.29l-88.66 69.33 -20.05 -23.1 85.81 -66.44c0,-2.9 0,-2.9 0,-2.9l22.9 23.11z" />
        <polygon class="fil3"
            points="11053.82,6972.48 10965.17,7041.8 10945.16,7018.69 11030.97,6952.27 11030.97,6949.42 " />
        <polygon class="fil3"
            points="11262.58,7342.21 11348.43,7272.89 11371.27,7293.1 11282.63,7362.42 " />
        <path class="fil3"
            d="M11657.27 7584.85l-88.65 69.33 -20.05 -23.12 85.8 -66.42c0,0 0,0 0,-2.91l22.9 23.12z" />
        <path class="fil3"
            d="M11625.76 7553.02l-88.65 69.34 -19.99 -23.06 85.81 -66.47c0,-2.85 0,-2.85 0,-2.85l22.83 23.04z" />
        <polygon class="fil3"
            points="11594.32,7518.42 11505.68,7587.7 11485.67,7567.49 11571.43,7498.17 " />
        <polygon class="fil3"
            points="11560.03,7486.61 11474.23,7555.99 11454.23,7535.72 11540.03,7466.4 " />
        <polygon class="fil3"
            points="11528.57,7454.84 11442.77,7524.16 11422.72,7503.97 11508.53,7434.63 " />
        <path class="fil3"
            d="M11497.12 7423.08l-85.8 69.33 -22.9 -20.26 85.8 -69.27c2.85,0 2.85,0 2.85,0 0,0 0,0 0,-2.91l20.05 23.11z" />
        <path class="fil3"
            d="M11465.62 7391.32l-85.76 69.32 -22.9 -23.1 85.8 -66.43c0,0 0,0 2.85,-2.9l20.01 23.11z" />
        <path class="fil3"
            d="M11434.17 7359.56l-85.75 69.27 -22.9 -23.05 85.8 -66.49c0,-2.85 0,-2.85 0,-2.85l2.85 0 20 23.12z" />
        <polygon class="fil3"
            points="11402.71,7324.91 11314.12,7394.22 11294.07,7373.96 11379.87,7304.7 " />
        <polygon class="fil3"
            points="11371.27,7293.1 11282.63,7362.42 11262.58,7342.21 11348.43,7272.89 " />
        <path class="fil3"
            d="M11580.02 7665.72l85.8 -69.32c0,0 0,0 2.85,-2.9l20.06 23.11 -85.8 69.32 -22.92 -20.21z" />
        <path class="fil3"
            d="M11705.87 7636.82c5.7,2.89 -2.89,26.01 -25.75,49.11 -22.85,26.01 -45.74,31.77 -51.45,28.92 0,0 0,0 0,-2.91l-17.16 -14.45 85.76 -69.33c0,0 0,0 2.9,0l5.69 5.81c0,0 0,0 0,2.85z" />
        <path class="fil3"
            d="M10702.12 6617.2l-85.8 69.37 -22.92 -20.19 85.86 -69.39c0,0 0,0 2.78,0 0,0 0,0 0,-2.85l20.06 23.06z" />
        <path class="fil3"
            d="M10670.66 6585.49l-85.85 69.33 -22.85 -23.17 85.8 -66.37c0,0 0,0 0,-2.95 2.85,0 2.85,0 2.85,0l20.05 23.16z" />
        <polygon class="fil3"
            points="10639.16,6553.68 10550.51,6623 10530.52,6599.88 10616.33,6530.56 " />
        <polygon class="fil3"
            points="10607.76,6519.02 10519.07,6588.34 10499.06,6568.13 10584.82,6498.81 " />
        <polygon class="fil3"
            points="10576.27,6487.25 10487.62,6556.57 10467.62,6536.36 10553.42,6467.04 " />
        <polygon class="fil3"
            points="10544.81,6455.49 10456.16,6524.82 10436.11,6504.61 10521.92,6435.28 " />
        <path class="fil3"
            d="M10510.51 6423.73l-85.8 69.27 -20.01 -20.21 85.76 -69.32c0,0 0,0 0,-2.85l20.05 23.11z" />
        <path class="fil3"
            d="M10479.01 6391.92l-85.76 69.33 -22.9 -23.11 88.71 -66.43c0,0 0,0 0,-2.85l19.95 23.06z" />
        <polygon class="fil3"
            points="10447.56,6360.15 10361.82,6429.48 10338.92,6406.37 10424.72,6337.05 10427.57,6337.05 " />
        <path class="fil3"
            d="M10416.11 6325.49l-85.81 69.34 -22.85 -20.21 85.8 -69.32c2.86,0 2.86,0 2.86,0l20 20.19z" />
        <path class="fil3"
            d="M10624.92 6698.08l85.75 -69.27c2.9,0 2.9,0 2.9,0l19.94 20.2 -85.74 69.33 -22.85 -20.26z" />
        <polygon class="fil3"
            points="11019.52,6940.71 10933.77,7010.04 10913.72,6986.93 10999.52,6917.61 " />
        <path class="fil3"
            d="M10988.12 6906.05l-85.86 69.32 -22.84 -20.21 85.75 -69.32c2.91,0 2.91,0 2.91,0l20.05 20.21z" />
        <polygon class="fil3"
            points="10956.61,6874.29 10870.82,6943.62 10847.92,6923.41 10933.77,6854.09 10936.57,6854.09 " />
        <path class="fil3"
            d="M10925.17 6842.53l-85.8 69.32 -22.92 -20.21 85.8 -69.32c2.85,0 2.85,0 2.85,0l20.06 20.21z" />
        <path class="fil3"
            d="M10893.66 6810.77l-85.75 69.33 -22.84 -23.12 85.74 -66.42c0,-2.91 0,-2.91 0,-2.91l22.85 23.12z" />
        <polygon class="fil3"
            points="10862.27,6779 10773.61,6848.28 10753.57,6825.23 10839.38,6758.75 10839.38,6755.9 " />
        <polygon class="fil3"
            points="10830.76,6747.2 10742.12,6816.51 10722.11,6793.41 10807.92,6724.1 " />
        <polygon class="fil3"
            points="10799.32,6712.54 10710.67,6781.85 10690.67,6761.64 10776.47,6692.33 " />
        <polygon class="fil3"
            points="10765.01,6680.77 10679.27,6750.08 10659.22,6729.89 10744.97,6660.56 " />
        <polygon class="fil3"
            points="10733.5,6649.01 10647.77,6718.34 10627.72,6698.08 10713.57,6628.81 " />
        <polygon class="fil3"
            points="10945.16,7018.69 11030.97,6952.27 11030.97,6949.42 11053.82,6972.48 10965.17,7041.8 " />
        <path class="fil3"
            d="M9990.06 6051.09l85.76 -66.41c0,-2.91 0,-2.91 0,-2.91l22.9 23.16 -88.66 69.28 -20 -23.12z" />
        <path class="fil3"
            d="M10384.66 6293.74l-85.76 69.32 -22.94 -20.21 85.85 -69.32c0,0 0,0 2.8,0l20.05 20.21z" />
        <polygon class="fil3"
            points="10353.22,6261.97 10264.56,6331.29 10244.57,6311.1 10330.31,6241.76 " />
        <polygon class="fil3"
            points="10321.76,6230.21 10233.11,6299.54 10213.11,6279.28 10298.91,6210 10298.91,6207.1 " />
        <path class="fil3"
            d="M10290.31 6198.4l-88.65 69.32 -20.05 -23.05 85.8 -66.48c0,0 0,0 0,-2.85l22.9 23.06z" />
        <polygon class="fil3"
            points="10256,6166.63 10170.16,6235.96 10150.22,6212.85 10235.96,6143.53 " />
        <polygon class="fil3"
            points="10224.51,6131.97 10138.72,6201.29 10118.71,6181.08 10204.52,6111.77 " />
        <path class="fil3"
            d="M10193.06 6100.22l-85.75 69.32 -22.91 -20.21 85.75 -69.32c2.9,0 2.9,0 2.9,0l20.01 20.21z" />
        <path class="fil3"
            d="M10161.61 6068.46l-85.8 69.32 -22.86 -20.25 85.76 -69.28c0,0 0,0 2.89,0l20.01 20.21z" />
        <polygon class="fil3"
            points="10130.15,6036.64 10044.36,6106.02 10021.46,6085.76 10107.31,6016.43 10110.11,6013.58 " />
        <path class="fil3"
            d="M10098.71 6004.93l-88.66 69.28 -20 -23.12 85.76 -66.41c0,0 0,0 0,-2.91l22.9 23.16z" />
        <path class="fil3"
            d="M10307.46 6374.62l85.8 -69.32c2.86,0 2.86,0 2.86,0l20 20.19 -85.81 69.34 -22.85 -20.21z" />
        <polygon class="fil3"
            points="10061.51,6111.77 10121.56,6100.22 10161.61,6068.46 10141.61,6048.25 " />
        <polygon class="fil3" points="10153.01,6094.46 10173.06,6080.02 10181.62,6088.67 " />
        <polygon class="fil3"
            points="11914.63,7160.23 12020.42,7194.9 12031.88,7166.04 11928.92,7131.37 " />
        <path class="fil3"
            d="M11934.62 7116.92l105.8 34.66 11.45 -26.01 -102.95 -34.66c-2.85,0 -2.85,0 -2.85,0l-11.45 26.01z" />
        <polygon class="fil3"
            points="11951.78,7076.46 12057.58,7111.18 12071.93,7085.17 11966.12,7050.51 11966.12,7047.6 " />
        <path class="fil3"
            d="M11971.82 7036.05l105.8 34.66 11.45 -28.91 -102.95 -34.66c-2.85,0 -2.85,0 -2.85,0l-11.45 28.91z" />
        <polygon class="fil3"
            points="11991.89,6992.73 12094.78,7027.35 12109.08,7001.38 12003.28,6966.72 " />
        <path class="fil3"
            d="M12009.02 6952.27l105.8 34.66 11.4 -25.95 -102.95 -34.72c0,-2.85 0,-2.85 0,-2.85l-14.25 28.86z" />
        <polygon class="fil3"
            points="12028.97,6911.85 12134.78,6946.51 12146.28,6917.61 12043.33,6882.95 12040.43,6882.95 " />
        <polygon class="fil3"
            points="12046.13,6868.54 12151.97,6906.05 12166.27,6877.19 12060.47,6842.53 " />
        <path class="fil3"
            d="M12066.17 6828.07l105.8 34.67 11.45 -26.02 -102.89 -34.66c-2.91,0 -2.91,0 -2.91,-2.85l-11.45 28.86z" />
        <polygon class="fil3"
            points="12086.24,6787.65 12189.13,6822.32 12203.48,6793.41 12097.67,6758.75 " />
        <polygon class="fil3"
            points="12014.73,7206.46 11908.93,7171.79 11897.42,7200.71 12000.43,7235.38 " />
        <path class="fil3"
            d="M11725.88 7573.29l105.8 34.67 11.44 -28.93 -102.94 -34.66c-2.85,0 -2.85,0 -2.85,0l-11.45 28.92z" />
        <polygon class="fil3"
            points="11745.92,7529.98 11848.88,7564.64 11863.13,7538.63 11757.32,7503.97 " />
        <path class="fil3"
            d="M11763.08 7489.5l105.8 34.66 11.4 -25.99 -102.89 -34.68c0,0 0,0 0,-2.85l-14.3 28.86z" />
        <polygon class="fil3"
            points="11783.08,7449.1 11888.87,7483.76 11900.33,7454.84 11797.37,7420.18 11794.53,7420.18 " />
        <polygon class="fil3"
            points="11800.22,7405.78 11906.02,7440.45 11920.38,7414.43 11814.52,7379.77 " />
        <polygon class="fil3"
            points="11820.23,7365.31 11926.08,7399.97 11937.53,7373.96 11834.53,7339.3 11831.68,7336.45 " />
        <polygon class="fil3"
            points="11840.27,7324.91 11943.22,7359.56 11957.53,7330.65 11851.72,7295.99 " />
        <polygon class="fil3"
            points="11857.43,7281.54 11963.23,7319.11 11974.67,7290.25 11871.73,7255.57 " />
        <path class="fil3"
            d="M11877.47 7241.12l105.8 34.66 11.4 -26.01 -102.96 -34.66 -2.85 0c0,0 0,0 0,-2.9l-11.4 28.91z" />
        <polygon class="fil3"
            points="11894.63,7200.71 12000.43,7235.38 12014.73,7206.46 11908.93,7171.79 " />
        <path class="fil3"
            d="M11825.92 7619.51l-105.8 -31.81c0,-2.85 0,-2.85 0,-2.85l-14.25 28.85 105.8 34.67 14.25 -28.86z" />
        <path class="fil3"
            d="M11694.44 7636.82c0,5.74 14.28,26.01 42.89,40.46 31.45,14.41 57.2,11.56 57.2,5.76l2.84 0 8.61 -20.21 -103 -34.67 -2.8 0 -2.9 8.66c0,0 0,0 -2.84,0z" />
        <polygon class="fil3"
            points="12292.13,6331.29 12397.94,6368.86 12412.22,6339.96 12306.44,6305.3 " />
        <path class="fil3"
            d="M12312.13 6290.83l105.79 34.66 11.45 -25.95 -102.95 -34.66c-2.85,0 -2.85,0 -2.85,0l-11.44 25.95z" />
        <polygon class="fil3"
            points="12332.13,6250.42 12435.08,6285.09 12449.43,6256.17 12343.58,6221.5 " />
        <polygon class="fil3"
            points="12349.27,6210 12455.12,6244.67 12466.58,6215.76 12363.59,6181.08 " />
        <polygon class="fil3"
            points="12369.33,6166.63 12475.13,6201.29 12486.53,6175.34 12383.63,6140.68 12380.73,6140.68 " />
        <polygon class="fil3"
            points="12386.48,6126.23 12492.29,6160.89 12506.57,6134.88 12400.79,6100.22 12400.79,6097.32 " />
        <path class="fil3"
            d="M12406.53 6085.76l105.8 34.66 11.4 -28.86 -102.95 -34.66c-2.85,0 -2.85,0 -2.85,0l-11.4 28.86z" />
        <polygon class="fil3"
            points="12426.49,6042.44 12529.49,6077.11 12543.77,6051.09 12437.93,6016.43 " />
        <path class="fil3"
            d="M12443.62 6001.98l105.85 34.66 11.45 -25.95 -102.95 -34.68c0,-2.89 0,-2.89 0,-2.89l-14.35 28.86z" />
        <polygon class="fil3"
            points="12463.68,5961.56 12569.48,5996.22 12580.93,5967.32 12477.98,5932.7 12475.13,5932.7 " />
        <polygon class="fil3"
            points="12392.18,6380.36 12289.22,6345.76 12286.37,6345.76 12274.93,6374.62 12380.73,6409.28 " />
        <polygon class="fil3"
            points="12103.37,6744.34 12209.18,6781.85 12220.63,6752.99 12117.62,6718.34 " />
        <polygon class="fil3"
            points="12123.38,6703.89 12229.22,6738.54 12240.63,6712.54 12137.68,6677.87 12134.78,6677.87 " />
        <polygon class="fil3"
            points="12140.57,6663.47 12246.38,6698.08 12260.62,6669.22 12154.82,6634.56 " />
        <polygon class="fil3"
            points="12160.52,6623 12266.33,6657.67 12277.78,6628.81 12174.89,6594.14 12171.98,6594.14 " />
        <polygon class="fil3"
            points="12180.58,6579.69 12283.48,6614.35 12297.83,6588.34 12192.02,6553.68 " />
        <polygon class="fil3"
            points="12197.72,6539.27 12303.53,6573.93 12314.98,6547.92 12212.03,6513.26 12212.03,6510.35 " />
        <polygon class="fil3"
            points="12217.79,6498.81 12323.57,6533.47 12335.03,6504.61 12232.04,6469.95 12229.22,6469.95 " />
        <polygon class="fil3"
            points="12234.93,6455.49 12340.73,6490.16 12354.98,6464.14 12249.17,6429.48 " />
        <path class="fil3"
            d="M12254.93 6415.07l105.8 34.67 11.44 -26.01 -102.94 -34.67c0,-2.91 -2.91,-2.91 -2.91,-2.91l-11.4 28.92z" />
        <path class="fil3"
            d="M12274.93 6374.62l103 34.66 14.25 -28.92 -102.95 -34.6c-2.85,0 -2.85,0 -2.85,0l-11.44 28.86z" />
        <polygon class="fil3"
            points="12203.48,6793.41 12097.67,6758.75 12086.24,6787.65 12189.13,6822.32 " />
        <path class="fil3"
            d="M12769.69 5554.32l-102.96 -34.66c-2.9,0 -2.9,0 -2.9,0l-11.4 28.86 105.85 34.66 11.41 -28.86z" />
        <polygon class="fil3"
            points="12480.82,5918.25 12586.64,5952.91 12600.94,5926.9 12495.14,5892.24 " />
        <polygon class="fil3"
            points="12500.88,5877.78 12606.68,5912.45 12618.14,5886.48 12515.13,5851.82 12512.33,5848.92 " />
        <polygon class="fil3"
            points="12520.88,5837.36 12623.84,5872.03 12638.14,5843.17 12532.34,5808.5 " />
        <polygon class="fil3"
            points="12538.08,5794.05 12643.88,5831.57 12655.28,5802.71 12552.34,5768.05 " />
        <polygon class="fil3"
            points="12558.04,5753.6 12663.83,5788.26 12675.29,5762.25 12572.39,5727.63 12569.48,5727.63 " />
        <polygon class="fil3"
            points="12575.17,5713.18 12681.04,5747.84 12695.33,5718.98 12589.53,5684.32 " />
        <polygon class="fil3"
            points="12595.24,5672.71 12701.03,5707.38 12712.49,5678.52 12609.53,5643.85 12606.68,5643.85 " />
        <path class="fil3"
            d="M12615.28 5629.45l102.9 34.61 14.34 -25.96 -103 -34.67c-2.8,0 -2.8,0 -2.8,0l-11.44 26.02z" />
        <polygon class="fil3"
            points="12632.43,5588.98 12738.23,5623.64 12749.69,5597.63 12646.69,5562.97 12646.69,5560.12 " />
        <path class="fil3"
            d="M12652.43 5548.52l105.85 34.66 11.41 -28.86 -102.96 -34.66c0,0 0,0 -2.9,0l-11.4 28.86z" />
        <polygon class="fil3"
            points="12580.93,5967.32 12477.98,5932.7 12475.13,5932.7 12463.68,5961.56 12569.48,5996.22 " />
        <polygon class="fil3"
            points="12723.88,5635.2 12661.04,5646.75 12615.28,5629.45 12626.73,5603.43 " />
        <polygon class="fil3" points="12629.53,5652.5 12606.68,5643.85 12600.94,5655.41 " />
 </g>
</svg>
